<?xml version="1.0" encoding="utf-8"?>
<!-- Generator: Adobe Illustrator 24.1.2, SVG Export Plug-In . SVG Version: 6.00 Build 0)  -->
<svg version="1.1" id="Layer_1" xmlns="http://www.w3.org/2000/svg" xmlns:xlink="http://www.w3.org/1999/xlink" x="0px" y="0px"
	 viewBox="0 0 180 108" style="enable-background:new 0 0 180 108;" xml:space="preserve">
<g>
	<g>
		<path d="M100,41.4V30.4h-3.5v-2.1h9.6v2.1h-3.5v10.9H100z"/>
		<path d="M116.2,41.4v-5.6h-5.3v5.6h-2.5v-13h2.5v5.2h5.3v-5.2h2.5v13H116.2z"/>
		<path d="M122,41.4v-13h8.4v2.1h-5.9v3.2h4.2v2h-4.2v3.6h6.1v2.1H122z"/>
		<path d="M107.3,55.6c-0.9,3.2-2.8,4-5.2,4c-3.4,0-5.3-2.5-5.3-6.8c0-4.2,2.1-6.6,5.4-6.6c2.6,0,4.2,1.2,4.8,4l-2.3,0.4
			c-0.5-1.7-1.3-2.3-2.5-2.3c-1.8,0-2.9,1.6-2.9,4.6c0,3.2,1,4.7,2.8,4.7c1.3,0,2.2-0.7,2.7-2.5L107.3,55.6z"/>
		<path d="M109,52.9c0-3.5,1.6-6.7,5.6-6.7c4,0,5.6,3.3,5.6,6.7c0,4.1-2,6.7-5.6,6.7C111,59.6,109,56.9,109,52.9z M117.6,52.9
			c0-3-1.1-4.7-3.1-4.7s-3,1.8-3,4.7c0,3,1.1,4.7,3,4.7S117.6,55.8,117.6,52.9z"/>
		<path d="M122,52.9c0-3.5,1.6-6.7,5.6-6.7c4,0,5.6,3.3,5.6,6.7c0,4.1-2,6.7-5.6,6.7C124,59.6,122,56.9,122,52.9z M130.6,52.9
			c0-3-1.1-4.7-3.1-4.7c-2,0-3,1.8-3,4.7c0,3,1.1,4.7,3,4.7C129.5,57.6,130.6,55.8,130.6,52.9z"/>
		<path d="M135.7,59.4v-13h4.5c3.4,0,5,1.3,5,4c0,2.8-1.9,4.1-5.1,4.1h-1.9v5H135.7z M140.3,52.3c1.2,0,2.4-0.3,2.4-2
			c0-1.3-0.9-1.9-2.4-1.9h-2.1v3.9H140.3z"/>
		<path d="M147.7,59.4v-13h8.4v2.1h-5.9v3.2h4.2v2h-4.2v3.6h6.1v2.1H147.7z"/>
		<path d="M166,59.4l-2.4-5.2h-2.4v5.2h-2.5v-13h4.4c3.4,0,5.1,1.3,5.1,3.8c0,1.7-0.9,2.8-2.3,3.4l2.8,5.9H166z M163.1,52.1
			c0.9,0,2.5-0.2,2.5-1.9c0-1.6-1.3-1.8-2.4-1.8h-2.1v3.7H163.1z"/>
		<path d="M105.3,64.3h2.5v7.8c0,3.4-1.6,5.5-5.3,5.5s-5-2-5-5.5v-7.8h2.5v8.2c0,2,0.8,2.9,2.6,2.9c1.8,0,2.7-0.9,2.7-2.9V64.3z"/>
		<path d="M119,77.4l-5.5-9.5h0v9.5H111v-13h3.1l4.9,8.7h0v-8.7h2.3v13H119z"/>
		<path d="M124.7,77.4v-13h2.5v13H124.7z"/>
		<path d="M129.9,70.9c0-3.5,1.6-6.7,5.6-6.7c4,0,5.6,3.3,5.6,6.7c0,4.1-2,6.7-5.6,6.7C131.8,77.6,129.9,74.9,129.9,70.9z
			 M138.5,70.9c0-3-1.1-4.7-3.1-4.7s-3,1.8-3,4.7c0,3,1.1,4.7,3,4.7S138.5,73.8,138.5,70.9z"/>
		<path d="M151.5,77.4l-5.5-9.5h0v9.5h-2.4v-13h3.1l4.9,8.7h0v-8.7h2.3v13H151.5z"/>
	</g>
</g>
<g>
	<path d="M45.3,47.4c-3.4,2.4-7.1,3.7-11,3.7c-4,0-7.7-1.2-11-3.7v-4.9c0-0.7,0.2-1.3,0.7-1.7c0.5-0.4,1-0.6,1.6-0.6
		c0.6,0,1.2,0.2,1.6,0.6c0.5,0.4,0.7,1,0.7,1.7v2.4c2,1,4.2,1.5,6.4,1.5c2.3,0,4.4-0.5,6.3-1.5v-6.4L24,33.3V21.4
		c3.2-2.4,6.7-3.7,10.3-3.7c3.8,0,7.2,1.2,10.4,3.7V26c0,0.7-0.2,1.3-0.7,1.7c-0.5,0.4-1,0.6-1.6,0.6c-0.6,0-1.2-0.2-1.6-0.6
		c-0.5-0.4-0.7-1-0.7-1.7v-2.1c-1.8-1-3.8-1.5-5.7-1.5c-2,0-3.9,0.5-5.7,1.5v6l16.7,5.2V47.4z"/>
	<path d="M72.8,20.3c0,0.6-0.2,1.2-0.6,1.6c-0.4,0.5-1,0.7-1.7,0.7h-6.8v26.2c0,0.7-0.2,1.3-0.7,1.7c-0.5,0.4-1,0.6-1.6,0.6
		c-0.6,0-1.2-0.2-1.6-0.6c-0.5-0.4-0.7-1-0.7-1.7V22.7h-7.3c-0.7,0-1.3-0.2-1.7-0.7c-0.4-0.5-0.6-1-0.6-1.6c0-0.6,0.2-1.2,0.6-1.6
		c0.4-0.5,1-0.7,1.7-0.7h18.8c0.7,0,1.3,0.2,1.7,0.7C72.6,19.2,72.8,19.7,72.8,20.3z"/>
	<path d="M42.6,86.4c0,0.6-0.2,1.2-0.6,1.6c-0.4,0.5-1,0.7-1.7,0.7H23.4V56h15.5c1.5,0,2.3,0.8,2.3,2.3c0,0.6-0.2,1.2-0.6,1.6
		c-0.4,0.5-1,0.7-1.7,0.7H28v8.8h7.7c0.7,0,1.3,0.2,1.7,0.7c0.4,0.5,0.6,1,0.6,1.6c0,0.6-0.2,1.2-0.6,1.6c-0.4,0.5-1,0.7-1.7,0.7H28
		v10.1h12.2c0.7,0,1.2,0.2,1.7,0.7C42.4,85.3,42.6,85.8,42.6,86.4z"/>
	<path d="M71.8,86.8c0,0.7-0.2,1.3-0.7,1.7c-0.5,0.4-1,0.6-1.6,0.6c-1.5,0-2.3-0.8-2.3-2.3V62l-3.8,12.2c-0.4,1.1-1.1,1.7-2.2,1.7
		h-2c-1.1,0-1.9-0.6-2.2-1.7L53,61.9v24.9c0,0.7-0.2,1.3-0.7,1.7c-0.5,0.4-1,0.6-1.6,0.6c-0.6,0-1.2-0.2-1.6-0.6
		c-0.5-0.4-0.7-1-0.7-1.7V58.3c0-1.5,0.8-2.3,2.3-2.3h3.2c0.7,0,1.2,0.1,1.5,0.3c0.3,0.2,0.6,0.6,0.8,1.3l3.7,11.6
		c0.1,0.4,0.2,1,0.3,1.7c0.1-0.7,0.2-1.3,0.3-1.7L64,57.6c0.2-0.6,0.5-1,0.8-1.3c0.3-0.2,0.8-0.3,1.5-0.3h3.3c1.5,0,2.3,0.8,2.3,2.3
		V86.8z"/>
	<g>
		<path d="M19.4,10.3c0.5,0.6,1.2,1,2,1c1.4,0,2.6-1.1,2.6-2.6s-1.1-2.6-2.6-2.6c-0.8,0-1.4,0.3-1.9,0.8H9.5v92.3h10
			c0.5,0.6,1.2,1,2,1c1.4,0,2.6-1.1,2.6-2.6c0-1.4-1.1-2.6-2.6-2.6c-0.8,0-1.5,0.4-1.9,0.9h-6.8V10.3H19.4z"/>
		<path d="M85.9,7.1H75.8c-0.5-0.5-1.1-0.8-1.9-0.8c-1.4,0-2.6,1.1-2.6,2.6s1.1,2.6,2.6,2.6c0.8,0,1.6-0.4,2-1h6.7v85.8h-6.8
			c-0.5-0.6-1.2-0.9-1.9-0.9c-1.4,0-2.6,1.1-2.6,2.6c0,1.4,1.1,2.6,2.6,2.6c0.8,0,1.5-0.4,2-1h10V7.1z"/>
	</g>
</g>
</svg>
