<?xml version="1.0" encoding="UTF-8" standalone="no"?>
<svg
   xmlns:dc="http://purl.org/dc/elements/1.1/"
   xmlns:cc="http://creativecommons.org/ns#"
   xmlns:rdf="http://www.w3.org/1999/02/22-rdf-syntax-ns#"
   xmlns:svg="http://www.w3.org/2000/svg"
   xmlns="http://www.w3.org/2000/svg"
   xmlns:sodipodi="http://sodipodi.sourceforge.net/DTD/sodipodi-0.dtd"
   xmlns:inkscape="http://www.inkscape.org/namespaces/inkscape"
   sodipodi:docname="Encoder Wheel.svg"
   inkscape:version="1.0 (4035a4fb49, 2020-05-01)"
   id="svg8"
   version="1.1"
   viewBox="0 0 210 297"
   height="297mm"
   width="210mm">
  <defs
     id="defs2">
    <marker
       id="DistanceX"
       orient="auto"
       refX="0.0"
       refY="0.0"
       style="overflow:visible">
      <path
         d="M 3,-3 L -3,3 M 0,-5 L  0,5"
         style="stroke:#000000; stroke-width:0.5"
         id="path833" />
    </marker>
    <pattern
       id="Hatch"
       patternUnits="userSpaceOnUse"
       width="8"
       height="8"
       x="0"
       y="0">
      <path
         d="M8 4 l-4,4"
         stroke="#000000"
         stroke-width="0.25"
         linecap="square"
         id="path836" />
      <path
         d="M6 2 l-4,4"
         stroke="#000000"
         stroke-width="0.25"
         linecap="square"
         id="path838" />
      <path
         d="M4 0 l-4,4"
         stroke="#000000"
         stroke-width="0.25"
         linecap="square"
         id="path840" />
    </pattern>
    <symbol
       id="*MODEL_SPACE" />
    <symbol
       id="*PAPER_SPACE" />
  </defs>
  <sodipodi:namedview
     inkscape:window-maximized="0"
     inkscape:window-y="104"
     inkscape:window-x="545"
     inkscape:window-height="1040"
     inkscape:window-width="1274"
     showgrid="false"
     inkscape:document-rotation="0"
     inkscape:current-layer="layer1"
     inkscape:document-units="mm"
     inkscape:cy="560"
     inkscape:cx="400"
     inkscape:zoom="0.35"
     inkscape:pageshadow="2"
     inkscape:pageopacity="0.0"
     borderopacity="1.0"
     bordercolor="#666666"
     pagecolor="#ffffff"
     id="base" />
  <metadata
     id="metadata5">
    <rdf:RDF>
      <cc:Work
         rdf:about="">
        <dc:format>image/svg+xml</dc:format>
        <dc:type
           rdf:resource="http://purl.org/dc/dcmitype/StillImage" />
        <dc:title></dc:title>
      </cc:Work>
    </rdf:RDF>
  </metadata>
  <g
     id="layer1"
     inkscape:groupmode="layer"
     inkscape:label="Layer 1">
    <g
       transform="matrix(0.26458333,0,0,0.26458333,86.934524,-215.35715)"
       id="g1292">
      <g
         inkscape:label="0"
         id="g847" />
      <g
         inkscape:label="SECTION_CUTTING_LINE"
         id="g849" />
      <g
         inkscape:label="DETAIL_VIEW_BORDER"
         id="g851" />
      <g
         inkscape:label="DETAIL_VIEW_PARENT_BORDER"
         id="g853" />
      <g
         inkscape:label="TEXT"
         id="g855" />
      <g
         inkscape:label="SKETCHED_GEOMETRY"
         id="g857" />
      <g
         inkscape:label="VIRTUAL_SHARPS"
         id="g859" />
      <g
         inkscape:label="CENTERLINES"
         id="g861" />
      <g
         inkscape:label="CENTERMARKS"
         id="g863" />
      <g
         inkscape:label="TABLES"
         id="g865" />
      <g
         inkscape:label="IMAGES"
         id="g867" />
      <g
         inkscape:label="ANNOTATION_LINES"
         id="g869" />
      <g
         inkscape:label="ANNOTATION_TEXT"
         id="g871" />
      <g
         inkscape:label="SIDE_THREAD_SYMBOLS"
         id="g873" />
      <g
         inkscape:label="SIDE_THREAD_SYMBOLS_HIDDEN"
         id="g875" />
      <g
         inkscape:label="SURFACE_THREAD_SYMBOLS"
         id="g877" />
      <g
         inkscape:label="SURFACE_THREAD_SYMBOLS_ON_"
         id="g879" />
      <g
         inkscape:label="SURFACE_THREAD_SYMBOLS_HID"
         id="g881" />
      <g
         inkscape:label="BLIND_THREAD_SYMBOLS"
         id="g883" />
      <g
         inkscape:label="BLIND_THREAD_SYMBOLS_HIDDE"
         id="g885" />
      <g
         inkscape:label="EXPLODE_LINES"
         id="g887" />
      <g
         inkscape:label="HIDDEN_EXPLODE_LINES"
         id="g889" />
      <g
         inkscape:label="BREAK_LINES"
         id="g891" />
      <g
         inkscape:label="SHEETMETAL_BEND_LINES_UP"
         id="g893" />
      <g
         inkscape:label="SHEETMETAL_BEND_LINES_DOWN"
         id="g895" />
      <g
         inkscape:label="SHEETMETAL_BEND_TANGENT_LI"
         id="g897" />
      <g
         inkscape:label="SHEETMETAL_CUT_LINES"
         id="g899" />
      <g
         inkscape:label="HIDDEN"
         id="g901" />
      <g
         inkscape:label="VISIBLE"
         id="g1113">
        <path
           d="m 49.133858,1122.5197 a 49.133858,49.133858 0 1 0 -98.267716,0 49.133858,49.133858 0 1 0 98.267716,0 z"
           style="fill:none;stroke:#000000"
           id="path903" />
        <path
           d="m 14.015259,1079.3852 -7.835111,24.1139"
           style="fill:none;stroke:#000000"
           id="path905" />
        <path
           d="m 18.447268,1081.0864 a 45.354331,45.354331 0 0 0 -4.432009,-1.7012"
           style="fill:none;stroke:#000000"
           id="path907" />
        <path
           d="M 18.447268,1081.0864 8.134481,1104.2493"
           style="fill:none;stroke:#000000"
           id="path909" />
        <path
           d="m 6.773402,1104.8744 a 1.133858,1.133858 0 0 0 1.361079,-0.6251"
           style="fill:none;stroke:#000000"
           id="path911" />
        <path
           d="m 6.180148,1103.4991 a 1.133858,1.133858 0 0 0 0.593254,1.3753"
           style="fill:none;stroke:#000000"
           id="path913" />
        <path
           d="m 26.658607,1085.8273 -14.903266,20.5125"
           style="fill:none;stroke:#000000"
           id="path915" />
        <path
           d="m 30.347971,1088.8148 a 45.354331,45.354331 0 0 0 -3.689364,-2.9875"
           style="fill:none;stroke:#000000"
           id="path917" />
        <path
           d="m 30.347971,1088.8148 -16.965774,18.8424"
           style="fill:none;stroke:#000000"
           id="path919" />
        <path
           d="m 11.894591,1107.8311 a 1.133858,1.133858 0 0 0 1.487606,-0.1739"
           style="fill:none;stroke:#000000"
           id="path921" />
        <path
           d="m 11.755341,1106.3398 a 1.133858,1.133858 0 0 0 0.13925,1.4913"
           style="fill:none;stroke:#000000"
           id="path923" />
        <path
           d="m 36.692424,1095.8611 -20.512586,14.9032"
           style="fill:none;stroke:#000000"
           id="path925" />
        <path
           d="m 39.278003,1099.8425 a 45.354331,45.354331 0 0 0 -2.585579,-3.9814"
           style="fill:none;stroke:#000000"
           id="path927" />
        <path
           d="M 39.278003,1099.8425 17.319971,1112.52"
           style="fill:none;stroke:#000000"
           id="path929" />
        <path
           d="m 15.851454,1112.2256 a 1.133858,1.133858 0 0 0 1.468517,0.2944"
           style="fill:none;stroke:#000000"
           id="path931" />
        <path
           d="m 16.179838,1110.7643 a 1.133858,1.133858 0 0 0 -0.328384,1.4613"
           style="fill:none;stroke:#000000"
           id="path933" />
        <path
           d="m 43.134532,1108.5044 -24.113991,7.8351"
           style="fill:none;stroke:#000000"
           id="path935" />
        <path
           d="m 44.36323,1113.09 a 45.354331,45.354331 0 0 0 -1.228698,-4.5856"
           style="fill:none;stroke:#000000"
           id="path937" />
        <path
           d="m 44.36323,1113.09 -24.800884,5.2716"
           style="fill:none;stroke:#000000"
           id="path939" />
        <path
           d="m 18.256666,1117.6278 a 1.133858,1.133858 0 0 0 1.30568,0.7338"
           style="fill:none;stroke:#000000"
           id="path941" />
        <path
           d="m 19.020541,1116.3395 a 1.133858,1.133858 0 0 0 -0.763875,1.2883"
           style="fill:none;stroke:#000000"
           id="path943" />
        <path
           d="M 45.354331,1122.5197 H 19.99938"
           style="fill:none;stroke:#000000"
           id="path945" />
        <path
           d="m 45.105875,1127.2605 a 45.354331,45.354331 0 0 0 0.248456,-4.7408"
           style="fill:none;stroke:#000000"
           id="path947" />
        <path
           d="m 45.105875,1127.2605 -25.216054,-2.6503"
           style="fill:none;stroke:#000000"
           id="path949" />
        <path
           d="m 18.874789,1123.5089 a 1.133858,1.133858 0 0 0 1.015032,1.1013"
           style="fill:none;stroke:#000000"
           id="path951" />
        <path
           d="m 19.99938,1122.5197 a 1.133858,1.133858 0 0 0 -1.124591,0.9892"
           style="fill:none;stroke:#000000"
           id="path953" />
        <path
           d="m 43.134532,1136.5349 -24.113991,-7.8351"
           style="fill:none;stroke:#000000"
           id="path955" />
        <path
           d="m 41.433243,1140.967 a 45.354331,45.354331 0 0 0 1.701289,-4.4321"
           style="fill:none;stroke:#000000"
           id="path957" />
        <path
           d="m 41.433243,1140.967 -23.1629,-10.3128"
           style="fill:none;stroke:#000000"
           id="path959" />
        <path
           d="m 17.645316,1129.2931 a 1.133858,1.133858 0 0 0 0.625027,1.3611"
           style="fill:none;stroke:#000000"
           id="path961" />
        <path
           d="m 19.020541,1128.6998 a 1.133858,1.133858 0 0 0 -1.375225,0.5933"
           style="fill:none;stroke:#000000"
           id="path963" />
        <path
           d="M 36.692424,1149.1783 16.179838,1134.275"
           style="fill:none;stroke:#000000"
           id="path965" />
        <path
           d="m 33.704836,1152.8677 a 45.354331,45.354331 0 0 0 2.987588,-3.6894"
           style="fill:none;stroke:#000000"
           id="path967" />
        <path
           d="m 33.704836,1152.8677 -18.8424,-16.9658"
           style="fill:none;stroke:#000000"
           id="path969" />
        <path
           d="m 14.688596,1134.4143 a 1.133858,1.133858 0 0 0 0.17384,1.4876"
           style="fill:none;stroke:#000000"
           id="path971" />
        <path
           d="m 16.179838,1134.275 a 1.133858,1.133858 0 0 0 -1.491242,0.1393"
           style="fill:none;stroke:#000000"
           id="path973" />
        <path
           d="M 26.658607,1159.2121 11.755341,1138.6995"
           style="fill:none;stroke:#000000"
           id="path975" />
        <path
           d="m 22.677165,1161.7977 a 45.354331,45.354331 0 0 0 3.981442,-2.5856"
           style="fill:none;stroke:#000000"
           id="path977" />
        <path
           d="M 22.677165,1161.7977 9.99969,1139.8397"
           style="fill:none;stroke:#000000"
           id="path979" />
        <path
           d="m 10.294055,1138.3711 a 1.133858,1.133858 0 0 0 -0.294365,1.4686"
           style="fill:none;stroke:#000000"
           id="path981" />
        <path
           d="m 11.755341,1138.6995 a 1.133858,1.133858 0 0 0 -1.461286,-0.3284"
           style="fill:none;stroke:#000000"
           id="path983" />
        <path
           d="m 14.015259,1165.6542 -7.835111,-24.114"
           style="fill:none;stroke:#000000"
           id="path985" />
        <path
           d="m 9.429696,1166.8829 a 45.354331,45.354331 0 0 0 4.585563,-1.2287"
           style="fill:none;stroke:#000000"
           id="path987" />
        <path
           d="M 9.429696,1166.8829 4.158105,1142.082"
           style="fill:none;stroke:#000000"
           id="path989" />
        <path
           d="m 4.891859,1140.7764 a 1.133858,1.133858 0 0 0 -0.733754,1.3056"
           style="fill:none;stroke:#000000"
           id="path991" />
        <path
           d="m 6.180148,1141.5402 a 1.133858,1.133858 0 0 0 -1.288289,-0.7638"
           style="fill:none;stroke:#000000"
           id="path993" />
        <path
           d="m 0,1167.874 v -25.3549"
           style="fill:none;stroke:#000000"
           id="path995" />
        <path
           d="M -4.740818,1167.6256 A 45.354331,45.354331 0 0 0 0,1167.874"
           style="fill:none;stroke:#000000"
           id="path997" />
        <path
           d="m -4.740818,1167.6256 2.650314,-25.2161"
           style="fill:none;stroke:#000000"
           id="path999" />
        <path
           d="m -0.989186,1141.3945 a 1.133858,1.133858 0 0 0 -1.101318,1.015"
           style="fill:none;stroke:#000000"
           id="path1001" />
        <path
           d="m 0,1142.5191 a 1.133858,1.133858 0 0 0 -0.989186,-1.1246"
           style="fill:none;stroke:#000000"
           id="path1003" />
        <path
           d="m -14.015259,1165.6542 7.835111,-24.114"
           style="fill:none;stroke:#000000"
           id="path1005" />
        <path
           d="m -18.447268,1163.9529 a 45.354331,45.354331 0 0 0 4.432009,1.7013"
           style="fill:none;stroke:#000000"
           id="path1007" />
        <path
           d="M -18.447268,1163.9529 -8.134481,1140.79"
           style="fill:none;stroke:#000000"
           id="path1009" />
        <path
           d="m -6.773402,1140.165 a 1.133858,1.133858 0 0 0 -1.361079,0.625"
           style="fill:none;stroke:#000000"
           id="path1011" />
        <path
           d="m -6.180148,1141.5402 a 1.133858,1.133858 0 0 0 -0.593254,-1.3752"
           style="fill:none;stroke:#000000"
           id="path1013" />
        <path
           d="m -26.658607,1159.2121 14.903266,-20.5126"
           style="fill:none;stroke:#000000"
           id="path1015" />
        <path
           d="m -30.347971,1156.2245 a 45.354331,45.354331 0 0 0 3.689364,2.9876"
           style="fill:none;stroke:#000000"
           id="path1017" />
        <path
           d="m -30.347971,1156.2245 16.965774,-18.8424"
           style="fill:none;stroke:#000000"
           id="path1019" />
        <path
           d="m -11.894591,1137.2083 a 1.133858,1.133858 0 0 0 -1.487606,0.1738"
           style="fill:none;stroke:#000000"
           id="path1021" />
        <path
           d="m -11.755341,1138.6995 a 1.133858,1.133858 0 0 0 -0.13925,-1.4912"
           style="fill:none;stroke:#000000"
           id="path1023" />
        <path
           d="m -36.692424,1149.1783 20.512586,-14.9033"
           style="fill:none;stroke:#000000"
           id="path1025" />
        <path
           d="m -39.278003,1145.1969 a 45.354331,45.354331 0 0 0 2.585579,3.9814"
           style="fill:none;stroke:#000000"
           id="path1027" />
        <path
           d="m -39.278003,1145.1969 21.958032,-12.6775"
           style="fill:none;stroke:#000000"
           id="path1029" />
        <path
           d="m -15.851454,1132.8137 a 1.133858,1.133858 0 0 0 -1.468517,-0.2943"
           style="fill:none;stroke:#000000"
           id="path1031" />
        <path
           d="m -16.179838,1134.275 a 1.133858,1.133858 0 0 0 0.328384,-1.4613"
           style="fill:none;stroke:#000000"
           id="path1033" />
        <path
           d="m -43.134532,1136.5349 24.113991,-7.8351"
           style="fill:none;stroke:#000000"
           id="path1035" />
        <path
           d="m -44.36323,1131.9494 a 45.354331,45.354331 0 0 0 1.228698,4.5855"
           style="fill:none;stroke:#000000"
           id="path1037" />
        <path
           d="m -44.36323,1131.9494 24.800884,-5.2716"
           style="fill:none;stroke:#000000"
           id="path1039" />
        <path
           d="m -18.256666,1127.4115 a 1.133858,1.133858 0 0 0 -1.30568,-0.7337"
           style="fill:none;stroke:#000000"
           id="path1041" />
        <path
           d="m -19.020541,1128.6998 a 1.133858,1.133858 0 0 0 0.763875,-1.2883"
           style="fill:none;stroke:#000000"
           id="path1043" />
        <path
           d="M -45.354331,1122.5197 H -19.99938"
           style="fill:none;stroke:#000000"
           id="path1045" />
        <path
           d="m -45.105875,1117.7789 a 45.354331,45.354331 0 0 0 -0.248456,4.7408"
           style="fill:none;stroke:#000000"
           id="path1047" />
        <path
           d="m -45.105875,1117.7789 25.216054,2.6503"
           style="fill:none;stroke:#000000"
           id="path1049" />
        <path
           d="m -18.874789,1121.5305 a 1.133858,1.133858 0 0 0 -1.015032,-1.1013"
           style="fill:none;stroke:#000000"
           id="path1051" />
        <path
           d="m -19.99938,1122.5197 a 1.133858,1.133858 0 0 0 1.124591,-0.9892"
           style="fill:none;stroke:#000000"
           id="path1053" />
        <path
           d="m -43.134532,1108.5044 24.113991,7.8351"
           style="fill:none;stroke:#000000"
           id="path1055" />
        <path
           d="m -41.433243,1104.0724 a 45.354331,45.354331 0 0 0 -1.701289,4.432"
           style="fill:none;stroke:#000000"
           id="path1057" />
        <path
           d="m -41.433243,1104.0724 23.1629,10.3128"
           style="fill:none;stroke:#000000"
           id="path1059" />
        <path
           d="m -17.645316,1115.7463 a 1.133858,1.133858 0 0 0 -0.625027,-1.3611"
           style="fill:none;stroke:#000000"
           id="path1061" />
        <path
           d="m -19.020541,1116.3395 a 1.133858,1.133858 0 0 0 1.375225,-0.5932"
           style="fill:none;stroke:#000000"
           id="path1063" />
        <path
           d="m -36.692424,1095.8611 20.512586,14.9032"
           style="fill:none;stroke:#000000"
           id="path1065" />
        <path
           d="m -33.704836,1092.1717 a 45.354331,45.354331 0 0 0 -2.987588,3.6894"
           style="fill:none;stroke:#000000"
           id="path1067" />
        <path
           d="m -33.704836,1092.1717 18.8424,16.9658"
           style="fill:none;stroke:#000000"
           id="path1069" />
        <path
           d="m -14.688596,1110.6251 a 1.133858,1.133858 0 0 0 -0.17384,-1.4876"
           style="fill:none;stroke:#000000"
           id="path1071" />
        <path
           d="m -16.179838,1110.7643 a 1.133858,1.133858 0 0 0 1.491242,-0.1392"
           style="fill:none;stroke:#000000"
           id="path1073" />
        <path
           d="m -26.658607,1085.8273 14.903266,20.5125"
           style="fill:none;stroke:#000000"
           id="path1075" />
        <path
           d="m -22.677165,1083.2417 a 45.354331,45.354331 0 0 0 -3.981442,2.5856"
           style="fill:none;stroke:#000000"
           id="path1077" />
        <path
           d="m -22.677165,1083.2417 12.677475,21.958"
           style="fill:none;stroke:#000000"
           id="path1079" />
        <path
           d="m -10.294055,1106.6682 a 1.133858,1.133858 0 0 0 0.294365,-1.4685"
           style="fill:none;stroke:#000000"
           id="path1081" />
        <path
           d="m -11.755341,1106.3398 a 1.133858,1.133858 0 0 0 1.461286,0.3284"
           style="fill:none;stroke:#000000"
           id="path1083" />
        <path
           d="m -14.015259,1079.3852 7.835111,24.1139"
           style="fill:none;stroke:#000000"
           id="path1085" />
        <path
           d="m -9.429696,1078.1565 a 45.354331,45.354331 0 0 0 -4.585563,1.2287"
           style="fill:none;stroke:#000000"
           id="path1087" />
        <path
           d="m -9.429696,1078.1565 5.271591,24.8008"
           style="fill:none;stroke:#000000"
           id="path1089" />
        <path
           d="m -4.891859,1104.263 a 1.133858,1.133858 0 0 0 0.733754,-1.3057"
           style="fill:none;stroke:#000000"
           id="path1091" />
        <path
           d="m -6.180148,1103.4991 a 1.133858,1.133858 0 0 0 1.288289,0.7639"
           style="fill:none;stroke:#000000"
           id="path1093" />
        <path
           d="M 4.740818,1077.4138 A 45.354331,45.354331 0 0 0 0,1077.1654"
           style="fill:none;stroke:#000000"
           id="path1095" />
        <path
           d="m 4.740818,1077.4138 -2.650314,25.2161"
           style="fill:none;stroke:#000000"
           id="path1097" />
        <path
           d="m 0.989186,1103.6449 a 1.133858,1.133858 0 0 0 1.101318,-1.015"
           style="fill:none;stroke:#000000"
           id="path1099" />
        <path
           d="m 0,1102.5203 a 1.133858,1.133858 0 0 0 0.989186,1.1246"
           style="fill:none;stroke:#000000"
           id="path1101" />
        <path
           d="m 0,1077.1654 v 25.3549"
           style="fill:none;stroke:#000000"
           id="path1103" />
        <path
           d="m 6.707996,1129.7008 a 9.826772,9.826772 0 0 0 0,-14.3622"
           style="fill:none;stroke:#000000"
           id="path1105" />
        <path
           d="M 6.707996,1129.7008 H -6.707996"
           style="fill:none;stroke:#000000"
           id="path1107" />
        <path
           d="m -6.707996,1115.3386 a 9.826772,9.826772 0 0 0 0,14.3622"
           style="fill:none;stroke:#000000"
           id="path1109" />
        <path
           d="M -6.707996,1115.3386 H 6.707996"
           style="fill:none;stroke:#000000"
           id="path1111" />
      </g>
      <g
         inkscape:label="MODELSKETCH_VISIBLE"
         id="g1115" />
      <g
         inkscape:label="MODELSKETCH_POINT"
         id="g1117" />
      <g
         inkscape:label="MODELSKETCH_CONSTRUCTION"
         id="g1119" />
      <g
         inkscape:label="HIDDEN_BASE_VIEW"
         id="g1121" />
      <g
         inkscape:label="TANGENT_LINES"
         id="g1123" />
      <g
         inkscape:label="TANGENT_HIDDEN"
         id="g1125" />
      <g
         inkscape:label="INVISIBLE_LINES"
         id="g1127" />
      <g
         inkscape:label="VIEW_HATCHES"
         id="g1129" />
      <g
         inkscape:label="SECTION_JOG_LINES"
         id="g1131" />
    </g>
  </g>
</svg>
