<?xml version="1.0" encoding="UTF-8" standalone="no"?>
<svg
   xmlns:dc="http://purl.org/dc/elements/1.1/"
   xmlns:cc="http://creativecommons.org/ns#"
   xmlns:rdf="http://www.w3.org/1999/02/22-rdf-syntax-ns#"
   xmlns:svg="http://www.w3.org/2000/svg"
   xmlns="http://www.w3.org/2000/svg"
   xmlns:sodipodi="http://sodipodi.sourceforge.net/DTD/sodipodi-0.dtd"
   xmlns:inkscape="http://www.inkscape.org/namespaces/inkscape"
   sodipodi:docname="Frame for Encoders w insignia.svg"
   inkscape:version="1.0 (4035a4fb49, 2020-05-01)"
   id="svg8"
   version="1.1"
   viewBox="0 0 210 297"
   height="297mm"
   width="210mm">
  <defs
     id="defs2">
    <marker
       id="DistanceX"
       orient="auto"
       refX="0.0"
       refY="0.0"
       style="overflow:visible">
      <path
         d="M 3,-3 L -3,3 M 0,-5 L  0,5"
         style="stroke:#000000; stroke-width:0.5"
         id="path914" />
    </marker>
    <pattern
       id="Hatch"
       patternUnits="userSpaceOnUse"
       width="8"
       height="8"
       x="0"
       y="0">
      <path
         d="M8 4 l-4,4"
         stroke="#000000"
         stroke-width="0.25"
         linecap="square"
         id="path917" />
      <path
         d="M6 2 l-4,4"
         stroke="#000000"
         stroke-width="0.25"
         linecap="square"
         id="path919" />
      <path
         d="M4 0 l-4,4"
         stroke="#000000"
         stroke-width="0.25"
         linecap="square"
         id="path921" />
    </pattern>
    <symbol
       id="*MODEL_SPACE" />
    <symbol
       id="*PAPER_SPACE" />
  </defs>
  <sodipodi:namedview
     inkscape:window-maximized="1"
     inkscape:window-y="-8"
     inkscape:window-x="-8"
     inkscape:window-height="1017"
     inkscape:window-width="1920"
     showgrid="false"
     inkscape:document-rotation="0"
     inkscape:current-layer="layer1"
     inkscape:document-units="mm"
     inkscape:cy="247.47358"
     inkscape:cx="255.60949"
     inkscape:zoom="3.959798"
     inkscape:pageshadow="2"
     inkscape:pageopacity="0.0"
     borderopacity="1.0"
     bordercolor="#666666"
     pagecolor="#ffffff"
     id="base" />
  <metadata
     id="metadata5">
    <rdf:RDF>
      <cc:Work
         rdf:about="">
        <dc:format>image/svg+xml</dc:format>
        <dc:type
           rdf:resource="http://purl.org/dc/dcmitype/StillImage" />
        <dc:title></dc:title>
      </cc:Work>
    </rdf:RDF>
  </metadata>
  <g
     id="layer1"
     inkscape:groupmode="layer"
     inkscape:label="Layer 1">
    <g
       style="fill:#f70000;fill-opacity:1;stroke:#ff0000;stroke-opacity:1"
       transform="matrix(0,0.26458333,-0.26458333,0,69.060357,44.799415)"
       id="g912">
      <g
         style="fill:#f70000;fill-opacity:1;stroke:#ff0000;stroke-opacity:1"
         id="g863">
	<g
   style="fill:#f70000;fill-opacity:1;stroke:#ff0000;stroke-opacity:1"
   id="g861">
		<path
   style="fill:#f70000;fill-opacity:1;stroke:#ff0000;stroke-opacity:1"
   d="m 100,41.4 v -11 h -3.5 v -2.1 h 9.6 v 2.1 h -3.5 V 41.3 H 100 Z"
   id="path833" />

		<path
   style="fill:#f70000;fill-opacity:1;stroke:#ff0000;stroke-opacity:1"
   d="m 116.2,41.4 v -5.6 h -5.3 v 5.6 h -2.5 v -13 h 2.5 v 5.2 h 5.3 v -5.2 h 2.5 v 13 z"
   id="path835" />

		<path
   style="fill:#f70000;fill-opacity:1;stroke:#ff0000;stroke-opacity:1"
   d="m 122,41.4 v -13 h 8.4 v 2.1 h -5.9 v 3.2 h 4.2 v 2 h -4.2 v 3.6 h 6.1 v 2.1 z"
   id="path837" />

		<path
   style="fill:#f70000;fill-opacity:1;stroke:#ff0000;stroke-opacity:1"
   d="m 107.3,55.6 c -0.9,3.2 -2.8,4 -5.2,4 -3.4,0 -5.3,-2.5 -5.3,-6.8 0,-4.2 2.1,-6.6 5.4,-6.6 2.6,0 4.2,1.2 4.8,4 l -2.3,0.4 c -0.5,-1.7 -1.3,-2.3 -2.5,-2.3 -1.8,0 -2.9,1.6 -2.9,4.6 0,3.2 1,4.7 2.8,4.7 1.3,0 2.2,-0.7 2.7,-2.5 z"
   id="path839" />

		<path
   style="fill:#f70000;fill-opacity:1;stroke:#ff0000;stroke-opacity:1"
   d="m 109,52.9 c 0,-3.5 1.6,-6.7 5.6,-6.7 4,0 5.6,3.3 5.6,6.7 0,4.1 -2,6.7 -5.6,6.7 -3.6,0 -5.6,-2.7 -5.6,-6.7 z m 8.6,0 c 0,-3 -1.1,-4.7 -3.1,-4.7 -2,0 -3,1.8 -3,4.7 0,3 1.1,4.7 3,4.7 1.9,0 3.1,-1.8 3.1,-4.7 z"
   id="path841" />

		<path
   style="fill:#f70000;fill-opacity:1;stroke:#ff0000;stroke-opacity:1"
   d="m 122,52.9 c 0,-3.5 1.6,-6.7 5.6,-6.7 4,0 5.6,3.3 5.6,6.7 0,4.1 -2,6.7 -5.6,6.7 -3.6,0 -5.6,-2.7 -5.6,-6.7 z m 8.6,0 c 0,-3 -1.1,-4.7 -3.1,-4.7 -2,0 -3,1.8 -3,4.7 0,3 1.1,4.7 3,4.7 2,0 3.1,-1.8 3.1,-4.7 z"
   id="path843" />

		<path
   style="fill:#f70000;fill-opacity:1;stroke:#ff0000;stroke-opacity:1"
   d="m 135.7,59.4 v -13 h 4.5 c 3.4,0 5,1.3 5,4 0,2.8 -1.9,4.1 -5.1,4.1 h -1.9 v 5 h -2.5 z m 4.6,-7.1 c 1.2,0 2.4,-0.3 2.4,-2 0,-1.3 -0.9,-1.9 -2.4,-1.9 h -2.1 v 3.9 z"
   id="path845" />

		<path
   style="fill:#f70000;fill-opacity:1;stroke:#ff0000;stroke-opacity:1"
   d="m 147.7,59.4 v -13 h 8.4 v 2.1 h -5.9 v 3.2 h 4.2 v 2 h -4.2 v 3.6 h 6.1 v 2.1 z"
   id="path847" />

		<path
   style="fill:#f70000;fill-opacity:1;stroke:#ff0000;stroke-opacity:1"
   d="m 166,59.4 -2.4,-5.2 h -2.4 v 5.2 h -2.5 v -13 h 4.4 c 3.4,0 5.1,1.3 5.1,3.8 0,1.7 -0.9,2.8 -2.3,3.4 l 2.8,5.9 H 166 Z m -2.9,-7.3 c 0.9,0 2.5,-0.2 2.5,-1.9 0,-1.6 -1.3,-1.8 -2.4,-1.8 h -2.1 v 3.7 z"
   id="path849" />

		<path
   style="fill:#f70000;fill-opacity:1;stroke:#ff0000;stroke-opacity:1"
   d="m 105.3,64.3 h 2.5 v 7.8 c 0,3.4 -1.6,5.5 -5.3,5.5 -3.7,0 -5,-2 -5,-5.5 v -7.8 h 2.5 v 8.2 c 0,2 0.8,2.9 2.6,2.9 1.8,0 2.7,-0.9 2.7,-2.9 z"
   id="path851" />

		<path
   style="fill:#f70000;fill-opacity:1;stroke:#ff0000;stroke-opacity:1"
   d="m 119,77.4 -5.5,-9.5 v 0 9.5 H 111 v -13 h 3.1 l 4.9,8.7 v 0 -8.7 h 2.3 v 13 z"
   id="path853" />

		<path
   style="fill:#f70000;fill-opacity:1;stroke:#ff0000;stroke-opacity:1"
   d="m 124.7,77.4 v -13 h 2.5 v 13 z"
   id="path855" />

		<path
   style="fill:#f70000;fill-opacity:1;stroke:#ff0000;stroke-opacity:1"
   d="m 129.9,70.9 c 0,-3.5 1.6,-6.7 5.6,-6.7 4,0 5.6,3.3 5.6,6.7 0,4.1 -2,6.7 -5.6,6.7 -3.7,0 -5.6,-2.7 -5.6,-6.7 z m 8.6,0 c 0,-3 -1.1,-4.7 -3.1,-4.7 -2,0 -3,1.8 -3,4.7 0,3 1.1,4.7 3,4.7 1.9,0 3.1,-1.8 3.1,-4.7 z"
   id="path857" />

		<path
   style="fill:#f70000;fill-opacity:1;stroke:#ff0000;stroke-opacity:1"
   d="M 151.5,77.4 146,67.9 v 0 9.5 h -2.4 v -13 h 3.1 l 4.9,8.7 v 0 -8.7 h 2.3 v 13 z"
   id="path859" />

	</g>

</g>
      <g
         style="fill:#f70000;fill-opacity:1;stroke:#ff0000;stroke-opacity:1"
         id="g879">
	<path
   style="fill:#f70000;fill-opacity:1;stroke:#ff0000;stroke-opacity:1"
   d="m 45.3,47.4 c -3.4,2.4 -7.1,3.7 -11,3.7 -4,0 -7.7,-1.2 -11,-3.7 v -4.9 c 0,-0.7 0.2,-1.3 0.7,-1.7 0.5,-0.4 1,-0.6 1.6,-0.6 0.6,0 1.2,0.2 1.6,0.6 0.5,0.4 0.7,1 0.7,1.7 v 2.4 c 2,1 4.2,1.5 6.4,1.5 2.3,0 4.4,-0.5 6.3,-1.5 V 38.5 L 24,33.3 V 21.4 c 3.2,-2.4 6.7,-3.7 10.3,-3.7 3.8,0 7.2,1.2 10.4,3.7 V 26 c 0,0.7 -0.2,1.3 -0.7,1.7 -0.5,0.4 -1,0.6 -1.6,0.6 -0.6,0 -1.2,-0.2 -1.6,-0.6 -0.5,-0.4 -0.7,-1 -0.7,-1.7 v -2.1 c -1.8,-1 -3.8,-1.5 -5.7,-1.5 -2,0 -3.9,0.5 -5.7,1.5 v 6 l 16.7,5.2 v 12.3 z"
   id="path865" />

	<path
   style="fill:#f70000;fill-opacity:1;stroke:#ff0000;stroke-opacity:1"
   d="m 72.8,20.3 c 0,0.6 -0.2,1.2 -0.6,1.6 -0.4,0.5 -1,0.7 -1.7,0.7 h -6.8 v 26.2 c 0,0.7 -0.2,1.3 -0.7,1.7 -0.5,0.4 -1,0.6 -1.6,0.6 -0.6,0 -1.2,-0.2 -1.6,-0.6 -0.5,-0.4 -0.7,-1 -0.7,-1.7 V 22.7 h -7.3 c -0.7,0 -1.3,-0.2 -1.7,-0.7 -0.4,-0.5 -0.6,-1 -0.6,-1.6 0,-0.6 0.2,-1.2 0.6,-1.6 0.4,-0.5 1,-0.7 1.7,-0.7 h 18.8 c 0.7,0 1.3,0.2 1.7,0.7 0.3,0.4 0.5,0.9 0.5,1.5 z"
   id="path867" />

	<path
   style="fill:#f70000;fill-opacity:1;stroke:#ff0000;stroke-opacity:1"
   d="m 42.6,86.4 c 0,0.6 -0.2,1.2 -0.6,1.6 -0.4,0.5 -1,0.7 -1.7,0.7 H 23.4 V 56 h 15.5 c 1.5,0 2.3,0.8 2.3,2.3 0,0.6 -0.2,1.2 -0.6,1.6 -0.4,0.5 -1,0.7 -1.7,0.7 H 28 v 8.8 h 7.7 c 0.7,0 1.3,0.2 1.7,0.7 0.4,0.5 0.6,1 0.6,1.6 0,0.6 -0.2,1.2 -0.6,1.6 -0.4,0.5 -1,0.7 -1.7,0.7 H 28 v 10.1 h 12.2 c 0.7,0 1.2,0.2 1.7,0.7 0.5,0.5 0.7,1 0.7,1.6 z"
   id="path869" />

	<path
   style="fill:#f70000;fill-opacity:1;stroke:#ff0000;stroke-opacity:1"
   d="m 71.8,86.8 c 0,0.7 -0.2,1.3 -0.7,1.7 -0.5,0.4 -1,0.6 -1.6,0.6 -1.5,0 -2.3,-0.8 -2.3,-2.3 V 62 l -3.8,12.2 c -0.4,1.1 -1.1,1.7 -2.2,1.7 h -2 c -1.1,0 -1.9,-0.6 -2.2,-1.7 L 53,61.9 v 24.9 c 0,0.7 -0.2,1.3 -0.7,1.7 -0.5,0.4 -1,0.6 -1.6,0.6 -0.6,0 -1.2,-0.2 -1.6,-0.6 -0.5,-0.4 -0.7,-1 -0.7,-1.7 V 58.3 c 0,-1.5 0.8,-2.3 2.3,-2.3 h 3.2 c 0.7,0 1.2,0.1 1.5,0.3 0.3,0.2 0.6,0.6 0.8,1.3 l 3.7,11.6 c 0.1,0.4 0.2,1 0.3,1.7 0.1,-0.7 0.2,-1.3 0.3,-1.7 L 64,57.6 c 0.2,-0.6 0.5,-1 0.8,-1.3 0.3,-0.2 0.8,-0.3 1.5,-0.3 h 3.3 c 1.5,0 2.3,0.8 2.3,2.3 v 28.5 z"
   id="path871" />

	<g
   style="fill:#f70000;fill-opacity:1;stroke:#ff0000;stroke-opacity:1"
   id="g877">
		<path
   style="fill:#f70000;fill-opacity:1;stroke:#ff0000;stroke-opacity:1"
   d="m 19.4,10.3 c 0.5,0.6 1.2,1 2,1 1.4,0 2.6,-1.1 2.6,-2.6 0,-1.5 -1.1,-2.6 -2.6,-2.6 -0.8,0 -1.4,0.3 -1.9,0.8 h -10 v 92.3 h 10 c 0.5,0.6 1.2,1 2,1 1.4,0 2.6,-1.1 2.6,-2.6 C 24.1,96.2 23,95 21.5,95 20.7,95 20,95.4 19.6,95.9 H 12.8 V 10.3 Z"
   id="path873" />

		<path
   style="fill:#f70000;fill-opacity:1;stroke:#ff0000;stroke-opacity:1"
   d="M 85.9,7.1 H 75.8 C 75.3,6.6 74.7,6.3 73.9,6.3 c -1.4,0 -2.6,1.1 -2.6,2.6 0,1.5 1.1,2.6 2.6,2.6 0.8,0 1.6,-0.4 2,-1 h 6.7 v 85.8 h -6.8 c -0.5,-0.6 -1.2,-0.9 -1.9,-0.9 -1.4,0 -2.6,1.1 -2.6,2.6 0,1.4 1.1,2.6 2.6,2.6 0.8,0 1.5,-0.4 2,-1 h 10 z"
   id="path875" />

	</g>

</g>
    </g>
    <g
       transform="matrix(0.26458333,0,0,0.26458333,86.934525,-135.07493)"
       id="g1547">
      <g
         inkscape:label="0"
         id="g928" />
      <g
         inkscape:label="SECTION_CUTTING_LINE"
         id="g930" />
      <g
         inkscape:label="DETAIL_VIEW_BORDER"
         id="g932" />
      <g
         inkscape:label="DETAIL_VIEW_PARENT_BORDER"
         id="g934" />
      <g
         inkscape:label="TEXT"
         id="g936" />
      <g
         inkscape:label="SKETCHED_GEOMETRY"
         id="g938" />
      <g
         inkscape:label="VIRTUAL_SHARPS"
         id="g940" />
      <g
         inkscape:label="CENTERLINES"
         id="g942" />
      <g
         inkscape:label="CENTERMARKS"
         id="g944" />
      <g
         inkscape:label="TABLES"
         id="g946" />
      <g
         inkscape:label="IMAGES"
         id="g948" />
      <g
         inkscape:label="ANNOTATION_LINES"
         id="g950" />
      <g
         inkscape:label="ANNOTATION_TEXT"
         id="g952" />
      <g
         inkscape:label="SIDE_THREAD_SYMBOLS"
         id="g954" />
      <g
         inkscape:label="SIDE_THREAD_SYMBOLS_HIDDEN"
         id="g956" />
      <g
         inkscape:label="SURFACE_THREAD_SYMBOLS"
         id="g958" />
      <g
         inkscape:label="SURFACE_THREAD_SYMBOLS_ON_"
         id="g960" />
      <g
         inkscape:label="SURFACE_THREAD_SYMBOLS_HID"
         id="g962" />
      <g
         inkscape:label="BLIND_THREAD_SYMBOLS"
         id="g964" />
      <g
         inkscape:label="BLIND_THREAD_SYMBOLS_HIDDE"
         id="g966" />
      <g
         inkscape:label="EXPLODE_LINES"
         id="g968" />
      <g
         inkscape:label="HIDDEN_EXPLODE_LINES"
         id="g970" />
      <g
         inkscape:label="BREAK_LINES"
         id="g972" />
      <g
         inkscape:label="SHEETMETAL_BEND_LINES_UP"
         id="g974" />
      <g
         inkscape:label="SHEETMETAL_BEND_LINES_DOWN"
         id="g976" />
      <g
         inkscape:label="SHEETMETAL_BEND_TANGENT_LI"
         id="g978" />
      <g
         inkscape:label="SHEETMETAL_CUT_LINES"
         id="g980" />
      <g
         inkscape:label="HIDDEN"
         id="g982" />
      <g
         inkscape:label="VISIBLE"
         id="g1310">
        <path
           d="m 26.984219,872.76823 a 6.425197,6.425197 0 1 0 0,-12.85039"
           style="fill:none;stroke:#000000"
           id="path984" />
        <path
           d="M 26.984219,872.76823 H 25.094455"
           style="fill:none;stroke:#000000"
           id="path986" />
        <path
           d="m 25.094455,859.91784 a 6.425197,6.425197 0 1 0 0,12.85039"
           style="fill:none;stroke:#000000"
           id="path988" />
        <path
           d="M 26.984219,859.91784 H 25.094455"
           style="fill:none;stroke:#000000"
           id="path990" />
        <path
           d="m -151.54454,1162.3667 a 6.047245,6.047245 0 1 0 -12.09449,0 6.047245,6.047245 0 1 0 12.09449,0 z"
           style="fill:none;stroke:#000000"
           id="path992" />
        <path
           d="m -62.725643,1162.3668 a 6.0472445,6.0472445 0 1 0 -12.094489,0 6.0472445,6.0472445 0 1 0 12.094489,0 z"
           style="fill:none;stroke:#000000"
           id="path994" />
        <path
           d="m 99.04252,1115.1043 a 3.779528,3.779528 0 0 0 3.77953,3.7795"
           style="fill:none;stroke:#000000"
           id="path996" />
        <path
           d="m 99.04252,1115.1043 v -22.6771"
           style="fill:none;stroke:#000000"
           id="path998" />
        <path
           d="m 102.82205,1088.6476 a 3.779528,3.779528 0 0 0 -3.77953,3.7796"
           style="fill:none;stroke:#000000"
           id="path1000" />
        <path
           d="m 102.82205,1088.6476 h 15.11811"
           style="fill:none;stroke:#000000"
           id="path1002" />
        <path
           d="m 121.71968,1092.4272 a 3.779528,3.779528 0 0 0 -3.77952,-3.7796"
           style="fill:none;stroke:#000000"
           id="path1004" />
        <path
           d="m 121.71968,1115.1043 v -22.6771"
           style="fill:none;stroke:#000000"
           id="path1006" />
        <path
           d="m 117.94016,1118.8838 a 3.779528,3.779528 0 0 0 3.77952,-3.7795"
           style="fill:none;stroke:#000000"
           id="path1008" />
        <path
           d="m 102.82205,1118.8838 h 15.11811"
           style="fill:none;stroke:#000000"
           id="path1010" />
        <path
           d="m 99.04252,1039.5138 a 3.779528,3.779528 0 0 0 3.77953,3.7795"
           style="fill:none;stroke:#000000"
           id="path1012" />
        <path
           d="m 99.04252,1039.5138 v -22.6772"
           style="fill:none;stroke:#000000"
           id="path1014" />
        <path
           d="m 102.82205,1013.0571 a 3.779528,3.779528 0 0 0 -3.77953,3.7795"
           style="fill:none;stroke:#000000"
           id="path1016" />
        <path
           d="m 102.82205,1013.0571 h 15.11811"
           style="fill:none;stroke:#000000"
           id="path1018" />
        <path
           d="m 121.71968,1016.8366 a 3.779528,3.779528 0 0 0 -3.77952,-3.7795"
           style="fill:none;stroke:#000000"
           id="path1020" />
        <path
           d="m 121.71968,1039.5138 v -22.6772"
           style="fill:none;stroke:#000000"
           id="path1022" />
        <path
           d="m 117.94016,1043.2933 a 3.779528,3.779528 0 0 0 3.77952,-3.7795"
           style="fill:none;stroke:#000000"
           id="path1024" />
        <path
           d="m 102.82205,1043.2933 h 15.11811"
           style="fill:none;stroke:#000000"
           id="path1026" />
        <path
           d="m -121.71968,1115.1043 v -22.6771"
           style="fill:none;stroke:#000000"
           id="path1028" />
        <path
           d="m -117.94016,1088.6476 a 3.779528,3.779528 0 0 0 -3.77952,3.7796"
           style="fill:none;stroke:#000000"
           id="path1030" />
        <path
           d="m -102.82205,1088.6476 h -15.11811"
           style="fill:none;stroke:#000000"
           id="path1032" />
        <path
           d="m -99.04252,1092.4272 a 3.779528,3.779528 0 0 0 -3.77953,-3.7796"
           style="fill:none;stroke:#000000"
           id="path1034" />
        <path
           d="m -99.04252,1115.1043 v -22.6771"
           style="fill:none;stroke:#000000"
           id="path1036" />
        <path
           d="m -102.82205,1118.8838 a 3.779528,3.779528 0 0 0 3.77953,-3.7795"
           style="fill:none;stroke:#000000"
           id="path1038" />
        <path
           d="m -102.82205,1118.8838 h -15.11811"
           style="fill:none;stroke:#000000"
           id="path1040" />
        <path
           d="m -121.71968,1115.1043 a 3.779528,3.779528 0 0 0 3.77952,3.7795"
           style="fill:none;stroke:#000000"
           id="path1042" />
        <path
           d="m 118.82665,787.83757 v 7.55905"
           style="fill:none;stroke:#000000"
           id="path1044" />
        <path
           d="m 122.60617,784.05804 a 3.779528,3.779528 0 0 0 -3.77952,3.77953"
           style="fill:none;stroke:#000000"
           id="path1046" />
        <path
           d="m 122.60617,784.05804 h 41.57481"
           style="fill:none;stroke:#000000"
           id="path1048" />
        <path
           d="m 167.9605,787.83757 a 3.779528,3.779528 0 0 0 -3.77952,-3.77953"
           style="fill:none;stroke:#000000"
           id="path1050" />
        <path
           d="m 167.9605,787.83757 v 7.55905"
           style="fill:none;stroke:#000000"
           id="path1052" />
        <path
           d="m 164.18098,799.17615 a 3.779528,3.779528 0 0 0 3.77952,-3.77953"
           style="fill:none;stroke:#000000"
           id="path1054" />
        <path
           d="m 122.60617,799.17615 h 41.57481"
           style="fill:none;stroke:#000000"
           id="path1056" />
        <path
           d="m 118.82665,795.39662 a 3.779528,3.779528 0 0 0 3.77952,3.77953"
           style="fill:none;stroke:#000000"
           id="path1058" />
        <path
           d="m 118.82665,749.43757 v 7.55905"
           style="fill:none;stroke:#000000"
           id="path1060" />
        <path
           d="m 122.60617,745.65804 a 3.779528,3.779528 0 0 0 -3.77952,3.77953"
           style="fill:none;stroke:#000000"
           id="path1062" />
        <path
           d="m 122.60617,745.65804 h 41.57481"
           style="fill:none;stroke:#000000"
           id="path1064" />
        <path
           d="m 167.9605,749.43757 a 3.779528,3.779528 0 0 0 -3.77952,-3.77953"
           style="fill:none;stroke:#000000"
           id="path1066" />
        <path
           d="m 167.9605,749.43757 v 7.55905"
           style="fill:none;stroke:#000000"
           id="path1068" />
        <path
           d="m 164.18098,760.77615 a 3.779528,3.779528 0 0 0 3.77952,-3.77953"
           style="fill:none;stroke:#000000"
           id="path1070" />
        <path
           d="m 122.60617,760.77615 h 41.57481"
           style="fill:none;stroke:#000000"
           id="path1072" />
        <path
           d="m 118.82665,756.99662 a 3.779528,3.779528 0 0 0 3.77952,3.77953"
           style="fill:none;stroke:#000000"
           id="path1074" />
        <path
           d="m 118.82665,711.03757 v 7.55905"
           style="fill:none;stroke:#000000"
           id="path1076" />
        <path
           d="m 122.60617,707.25804 a 3.779528,3.779528 0 0 0 -3.77952,3.77953"
           style="fill:none;stroke:#000000"
           id="path1078" />
        <path
           d="m 122.60617,707.25804 h 41.57481"
           style="fill:none;stroke:#000000"
           id="path1080" />
        <path
           d="m 167.9605,711.03757 a 3.779528,3.779528 0 0 0 -3.77952,-3.77953"
           style="fill:none;stroke:#000000"
           id="path1082" />
        <path
           d="m 167.9605,711.03757 v 7.55905"
           style="fill:none;stroke:#000000"
           id="path1084" />
        <path
           d="m 164.18098,722.37615 a 3.779528,3.779528 0 0 0 3.77952,-3.77953"
           style="fill:none;stroke:#000000"
           id="path1086" />
        <path
           d="m 122.60617,722.37615 h 41.57481"
           style="fill:none;stroke:#000000"
           id="path1088" />
        <path
           d="m 118.82665,718.59662 a 3.779528,3.779528 0 0 0 3.77952,3.77953"
           style="fill:none;stroke:#000000"
           id="path1090" />
        <path
           d="M -43.881923,920.20131 H 37.37792"
           style="fill:none;stroke:#000000"
           id="path1092" />
        <path
           d="M -43.881923,920.20131 V 905.08319"
           style="fill:none;stroke:#000000"
           id="path1094" />
        <path
           d="M -43.881923,905.08319 H 37.37792"
           style="fill:none;stroke:#000000"
           id="path1096" />
        <path
           d="M 37.37792,920.20131 V 905.08319"
           style="fill:none;stroke:#000000"
           id="path1098" />
        <path
           d="m 3.83452,828.46749 a 4.818898,4.818898 0 1 0 -9.637796,0 4.818898,4.818898 0 1 0 9.637796,0 z"
           style="fill:none;stroke:#000000"
           id="path1100" />
        <path
           d="m 3.83452,723.39662 a 4.818898,4.818898 0 1 0 -9.637796,0 4.818898,4.818898 0 1 0 9.637796,0 z"
           style="fill:none;stroke:#000000"
           id="path1102" />
        <path
           d="m 73.448132,1108.7982 a 6.047244,6.047244 0 1 0 -12.094488,0 6.047244,6.047244 0 1 0 12.094488,0 z"
           style="fill:none;stroke:#000000"
           id="path1104" />
        <path
           d="m -50.286617,941.14647 a 6.047244,6.047244 0 1 0 -12.094488,0 6.047244,6.047244 0 1 0 12.094488,0 z"
           style="fill:none;stroke:#000000"
           id="path1106" />
        <path
           d="m -76.74331,971.38269 a 6.047244,6.047244 0 1 0 -12.094488,0 6.047244,6.047244 0 1 0 12.094488,0 z"
           style="fill:none;stroke:#000000"
           id="path1108" />
        <path
           d="m -76.74331,910.91025 a 6.047244,6.047244 0 1 0 -12.094488,0 6.047244,6.047244 0 1 0 12.094488,0 z"
           style="fill:none;stroke:#000000"
           id="path1110" />
        <path
           d="m 88.837798,910.91025 a 6.047244,6.047244 0 1 0 -12.094488,0 6.047244,6.047244 0 1 0 12.094488,0 z"
           style="fill:none;stroke:#000000"
           id="path1112" />
        <path
           d="m 88.837798,971.38269 a 6.047244,6.047244 0 1 0 -12.094488,0 6.047244,6.047244 0 1 0 12.094488,0 z"
           style="fill:none;stroke:#000000"
           id="path1114" />
        <path
           d="m -67.528246,1108.7982 a 6.047244,6.047244 0 1 0 -12.094488,0 6.047244,6.047244 0 1 0 12.094488,0 z"
           style="fill:none;stroke:#000000"
           id="path1116" />
        <path
           d="m 60.109006,1147.2487 a 6.0472445,6.0472445 0 1 0 -12.094489,0 6.0472445,6.0472445 0 1 0 12.094489,0 z"
           style="fill:none;stroke:#000000"
           id="path1118" />
        <path
           d="m 169.7153,1147.2487 a 6.047244,6.047244 0 1 0 -12.09448,0 6.047244,6.047244 0 1 0 12.09448,0 z"
           style="fill:none;stroke:#000000"
           id="path1120" />
        <path
           d="m 190.50266,1345.6739 a 6.047245,6.047245 0 1 0 -12.09449,0 6.047245,6.047245 0 1 0 12.09449,0 z"
           style="fill:none;stroke:#000000"
           id="path1122" />
        <path
           d="m 62.381105,941.14647 a 6.047244,6.047244 0 1 0 -12.094488,0 6.047244,6.047244 0 1 0 12.094488,0 z"
           style="fill:none;stroke:#000000"
           id="path1124" />
        <path
           d="m -16.864924,1394.4567 a 6.047244,6.047244 0 1 0 -12.094488,0 6.047244,6.047244 0 1 0 12.094488,0 z"
           style="fill:none;stroke:#000000"
           id="path1126" />
        <path
           d="m 28.959412,1394.4567 a 6.047244,6.047244 0 1 0 -12.094488,0 6.047244,6.047244 0 1 0 12.094488,0 z"
           style="fill:none;stroke:#000000"
           id="path1128" />
        <path
           d="m 6.047244,1354.7717 a 6.047244,6.047244 0 1 0 -12.094488,0 6.047244,6.047244 0 1 0 12.094488,0 z"
           style="fill:none;stroke:#000000"
           id="path1130" />
        <path
           d="M 24.338457,821.85332 V 729.63284"
           style="fill:none;stroke:#000000"
           id="path1132" />
        <path
           d="M -25.551307,821.85332 H 24.338457"
           style="fill:none;stroke:#000000"
           id="path1134" />
        <path
           d="M -25.551307,821.85332 V 729.63284"
           style="fill:none;stroke:#000000"
           id="path1136" />
        <path
           d="M -25.551307,729.63284 H 24.338457"
           style="fill:none;stroke:#000000"
           id="path1138" />
        <path
           d="m -102.82205,1013.0571 h -15.11811"
           style="fill:none;stroke:#000000"
           id="path1140" />
        <path
           d="m -99.04252,1016.8366 a 3.779528,3.779528 0 0 0 -3.77953,-3.7795"
           style="fill:none;stroke:#000000"
           id="path1142" />
        <path
           d="m -99.04252,1039.5138 v -22.6772"
           style="fill:none;stroke:#000000"
           id="path1144" />
        <path
           d="m -102.82205,1043.2933 a 3.779528,3.779528 0 0 0 3.77953,-3.7795"
           style="fill:none;stroke:#000000"
           id="path1146" />
        <path
           d="m -102.82205,1043.2933 h -15.11811"
           style="fill:none;stroke:#000000"
           id="path1148" />
        <path
           d="m -121.71968,1039.5138 a 3.779528,3.779528 0 0 0 3.77952,3.7795"
           style="fill:none;stroke:#000000"
           id="path1150" />
        <path
           d="m -121.71968,1039.5138 v -22.6772"
           style="fill:none;stroke:#000000"
           id="path1152" />
        <path
           d="m -117.94016,1013.0571 a 3.779528,3.779528 0 0 0 -3.77952,3.7795"
           style="fill:none;stroke:#000000"
           id="path1154" />
        <path
           d="M 245.10236,700.91339 A 18.897638,18.897638 0 0 0 264,682.01575"
           style="fill:none;stroke:#000000"
           id="path1156" />
        <path
           d="m 264,682.01575 c 0,-7.16644 -0.3328,-11.28963 -7.61154,-15.00353 C 227.91781,652.48536 93.176499,644.22047 0,644.22047"
           style="fill:none;stroke:#000000"
           id="path1158" />
        <path
           d="m -264,682.01575 c 0,-7.16644 0.3328,-11.28963 7.61154,-15.00353 C -227.91781,652.48536 -93.176499,644.22047 0,644.22047"
           style="fill:none;stroke:#000000"
           id="path1160" />
        <path
           d="m -264,682.01575 a 18.897638,18.897638 0 0 0 18.89764,18.89764"
           style="fill:none;stroke:#000000"
           id="path1162" />
        <path
           d="m -218.09764,700.91339 h -27.00472"
           style="fill:none;stroke:#000000"
           id="path1164" />
        <path
           d="m -199.2,719.81102 a 18.897638,18.897638 0 0 0 -18.89764,-18.89763"
           style="fill:none;stroke:#000000"
           id="path1166" />
        <path
           d="M -199.2,1022.1221 V 719.81102"
           style="fill:none;stroke:#000000"
           id="path1168" />
        <path
           d="m -199.2,1400.0748 c -41.75839,-25.8915 -68.20604,-82.5526 -64.8,-124.739 4.64451,-57.5259 64.8,-88.1374 64.8,-253.2137"
           style="fill:none;stroke:#000000"
           id="path1170" />
        <path
           d="m -199.2,1400.0748 a 378.01766,378.01766 0 0 0 398.4,0"
           style="fill:none;stroke:#000000"
           id="path1172" />
        <path
           d="m 199.2,1400.0748 c 41.75839,-25.8915 68.20604,-82.5526 64.8,-124.739 -4.64451,-57.5259 -64.8,-88.1374 -64.8,-253.2137"
           style="fill:none;stroke:#000000"
           id="path1174" />
        <path
           d="M 199.2,1022.1221 V 719.81102"
           style="fill:none;stroke:#000000"
           id="path1176" />
        <path
           d="M 218.09764,700.91339 A 18.897638,18.897638 0 0 0 199.2,719.81102"
           style="fill:none;stroke:#000000"
           id="path1178" />
        <path
           d="m 218.09764,700.91339 h 27.00472"
           style="fill:none;stroke:#000000"
           id="path1180" />
        <path
           d="m -33.488222,859.91784 a 6.425197,6.425197 0 1 0 0,12.85039"
           style="fill:none;stroke:#000000"
           id="path1182" />
        <path
           d="m -33.488222,859.91784 h 1.889764"
           style="fill:none;stroke:#000000"
           id="path1184" />
        <path
           d="m -31.598458,872.76823 a 6.425197,6.425197 0 0 0 0,-12.85039"
           style="fill:none;stroke:#000000"
           id="path1186" />
        <path
           d="m -33.488222,872.76823 h 1.889764"
           style="fill:none;stroke:#000000"
           id="path1188" />
        <path
           d="M 89.168507,853.39831 H 72.396853"
           style="fill:none;stroke:#000000"
           id="path1190" />
        <path
           d="m 89.168507,853.39831 a 1.889764,1.889764 0 0 0 1.889764,-1.88976"
           style="fill:none;stroke:#000000"
           id="path1192" />
        <path
           d="m 91.058271,851.50855 v -27.9685"
           style="fill:none;stroke:#000000"
           id="path1194" />
        <path
           d="m 94.837798,819.76052 a 3.779528,3.779528 0 0 0 -3.779527,3.77953"
           style="fill:none;stroke:#000000"
           id="path1196" />
        <path
           d="M 94.837798,819.76052 H 106.17638"
           style="fill:none;stroke:#000000"
           id="path1198" />
        <path
           d="m 109.95591,823.54005 a 3.779528,3.779528 0 0 0 -3.77953,-3.77953"
           style="fill:none;stroke:#000000"
           id="path1200" />
        <path
           d="m 109.95591,851.50855 v -27.9685"
           style="fill:none;stroke:#000000"
           id="path1202" />
        <path
           d="m 109.95591,851.50855 a 1.889764,1.889764 0 0 0 1.88976,1.88976"
           style="fill:none;stroke:#000000"
           id="path1204" />
        <path
           d="M 127.57796,853.39831 H 111.84567"
           style="fill:none;stroke:#000000"
           id="path1206" />
        <path
           d="m 129.46772,855.28808 a 1.889764,1.889764 0 0 0 -1.88976,-1.88977"
           style="fill:none;stroke:#000000"
           id="path1208" />
        <path
           d="m 129.46772,855.28808 v 23.43307"
           style="fill:none;stroke:#000000"
           id="path1210" />
        <path
           d="m 127.57796,880.61091 a 1.889764,1.889764 0 0 0 1.88976,-1.88976"
           style="fill:none;stroke:#000000"
           id="path1212" />
        <path
           d="M 127.57796,880.61091 H 111.84567"
           style="fill:none;stroke:#000000"
           id="path1214" />
        <path
           d="m 111.84567,880.61091 a 1.889764,1.889764 0 0 0 -1.88976,1.88977"
           style="fill:none;stroke:#000000"
           id="path1216" />
        <path
           d="m 109.95591,910.46918 v -27.9685"
           style="fill:none;stroke:#000000"
           id="path1218" />
        <path
           d="m 106.17638,914.24871 a 3.779528,3.779528 0 0 0 3.77953,-3.77953"
           style="fill:none;stroke:#000000"
           id="path1220" />
        <path
           d="M 94.837798,914.24871 H 106.17638"
           style="fill:none;stroke:#000000"
           id="path1222" />
        <path
           d="m 91.058271,910.46918 a 3.779528,3.779528 0 0 0 3.779527,3.77953"
           style="fill:none;stroke:#000000"
           id="path1224" />
        <path
           d="m 91.058271,910.46918 v -27.9685"
           style="fill:none;stroke:#000000"
           id="path1226" />
        <path
           d="m 91.058271,882.50068 a 1.889764,1.889764 0 0 0 -1.889764,-1.88977"
           style="fill:none;stroke:#000000"
           id="path1228" />
        <path
           d="M 89.168507,880.61091 H 72.396853"
           style="fill:none;stroke:#000000"
           id="path1230" />
        <path
           d="m 70.507089,878.72115 a 1.889764,1.889764 0 0 0 1.889764,1.88976"
           style="fill:none;stroke:#000000"
           id="path1232" />
        <path
           d="m 70.507089,875.87677 v 2.84438"
           style="fill:none;stroke:#000000"
           id="path1234" />
        <path
           d="m 70.507089,875.87677 a 1.889764,1.889764 0 0 0 -2.539842,-1.77443"
           style="fill:none;stroke:#000000"
           id="path1236" />
        <path
           d="m 65.366932,874.56367 a 7.559055,7.559055 0 0 0 2.600315,-0.46133"
           style="fill:none;stroke:#000000"
           id="path1238" />
        <path
           d="m 59.697641,874.56367 h 5.669291"
           style="fill:none;stroke:#000000"
           id="path1240" />
        <path
           d="m 59.697641,859.44556 a 7.559055,7.559055 0 0 0 0,15.11811"
           style="fill:none;stroke:#000000"
           id="path1242" />
        <path
           d="m 59.697641,859.44556 h 5.669291"
           style="fill:none;stroke:#000000"
           id="path1244" />
        <path
           d="m 67.967247,859.90689 a 7.559055,7.559055 0 0 0 -2.600315,-0.46133"
           style="fill:none;stroke:#000000"
           id="path1246" />
        <path
           d="m 67.967247,859.90689 a 1.889764,1.889764 0 0 0 2.539842,-1.77443"
           style="fill:none;stroke:#000000"
           id="path1248" />
        <path
           d="m 70.507089,855.28808 v 2.84438"
           style="fill:none;stroke:#000000"
           id="path1250" />
        <path
           d="m 72.396853,853.39831 a 1.889764,1.889764 0 0 0 -1.889764,1.88977"
           style="fill:none;stroke:#000000"
           id="path1252" />
        <path
           d="m -70.507089,855.28808 v 2.84438"
           style="fill:none;stroke:#000000"
           id="path1254" />
        <path
           d="m -70.507089,858.13246 a 1.889764,1.889764 0 0 0 2.539842,1.77443"
           style="fill:none;stroke:#000000"
           id="path1256" />
        <path
           d="m -65.366932,859.44556 a 7.559055,7.559055 0 0 0 -2.600315,0.46133"
           style="fill:none;stroke:#000000"
           id="path1258" />
        <path
           d="m -59.697641,859.44556 h -5.669291"
           style="fill:none;stroke:#000000"
           id="path1260" />
        <path
           d="m -59.697641,874.56367 a 7.559055,7.559055 0 0 0 0,-15.11811"
           style="fill:none;stroke:#000000"
           id="path1262" />
        <path
           d="m -59.697641,874.56367 h -5.669291"
           style="fill:none;stroke:#000000"
           id="path1264" />
        <path
           d="m -67.967247,874.10234 a 7.559055,7.559055 0 0 0 2.600315,0.46133"
           style="fill:none;stroke:#000000"
           id="path1266" />
        <path
           d="m -67.967247,874.10234 a 1.889764,1.889764 0 0 0 -2.539842,1.77443"
           style="fill:none;stroke:#000000"
           id="path1268" />
        <path
           d="m -70.507089,875.87677 v 2.84438"
           style="fill:none;stroke:#000000"
           id="path1270" />
        <path
           d="m -72.396853,880.61091 a 1.889764,1.889764 0 0 0 1.889764,-1.88976"
           style="fill:none;stroke:#000000"
           id="path1272" />
        <path
           d="m -91.058271,880.61091 h 18.661418"
           style="fill:none;stroke:#000000"
           id="path1274" />
        <path
           d="M -91.058271,910.46918 V 880.61091"
           style="fill:none;stroke:#000000"
           id="path1276" />
        <path
           d="m -94.837798,914.24871 a 3.779528,3.779528 0 0 0 3.779527,-3.77953"
           style="fill:none;stroke:#000000"
           id="path1278" />
        <path
           d="M -94.837798,914.24871 H -106.17638"
           style="fill:none;stroke:#000000"
           id="path1280" />
        <path
           d="m -109.95591,910.46918 a 3.779528,3.779528 0 0 0 3.77953,3.77953"
           style="fill:none;stroke:#000000"
           id="path1282" />
        <path
           d="M -109.95591,910.46918 V 880.61091"
           style="fill:none;stroke:#000000"
           id="path1284" />
        <path
           d="m -127.57796,880.61091 h 17.62205"
           style="fill:none;stroke:#000000"
           id="path1286" />
        <path
           d="m -129.46772,878.72115 a 1.889764,1.889764 0 0 0 1.88976,1.88976"
           style="fill:none;stroke:#000000"
           id="path1288" />
        <path
           d="m -129.46772,855.28808 v 23.43307"
           style="fill:none;stroke:#000000"
           id="path1290" />
        <path
           d="m -127.57796,853.39831 a 1.889764,1.889764 0 0 0 -1.88976,1.88977"
           style="fill:none;stroke:#000000"
           id="path1292" />
        <path
           d="m -127.57796,853.39831 h 17.62205"
           style="fill:none;stroke:#000000"
           id="path1294" />
        <path
           d="M -109.95591,853.39831 V 823.54005"
           style="fill:none;stroke:#000000"
           id="path1296" />
        <path
           d="m -106.17638,819.76052 a 3.779528,3.779528 0 0 0 -3.77953,3.77953"
           style="fill:none;stroke:#000000"
           id="path1298" />
        <path
           d="M -94.837798,819.76052 H -106.17638"
           style="fill:none;stroke:#000000"
           id="path1300" />
        <path
           d="m -91.058271,823.54005 a 3.779528,3.779528 0 0 0 -3.779527,-3.77953"
           style="fill:none;stroke:#000000"
           id="path1302" />
        <path
           d="M -91.058271,853.39831 V 823.54005"
           style="fill:none;stroke:#000000"
           id="path1304" />
        <path
           d="m -91.058271,853.39831 h 18.661418"
           style="fill:none;stroke:#000000"
           id="path1306" />
        <path
           d="m -70.507089,855.28808 a 1.889764,1.889764 0 0 0 -1.889764,-1.88977"
           style="fill:none;stroke:#000000"
           id="path1308" />
      </g>
      <g
         inkscape:label="MODELSKETCH_VISIBLE"
         id="g1312" />
      <g
         inkscape:label="MODELSKETCH_POINT"
         id="g1314" />
      <g
         inkscape:label="MODELSKETCH_CONSTRUCTION"
         id="g1316" />
      <g
         inkscape:label="HIDDEN_BASE_VIEW"
         id="g1318" />
      <g
         inkscape:label="TANGENT_LINES"
         id="g1320" />
      <g
         inkscape:label="TANGENT_HIDDEN"
         id="g1322" />
      <g
         inkscape:label="INVISIBLE_LINES"
         id="g1324" />
      <g
         inkscape:label="VIEW_HATCHES"
         id="g1326" />
      <g
         inkscape:label="SECTION_JOG_LINES"
         id="g1328" />
    </g>
  </g>
</svg>
