<?xml version="1.0" encoding="UTF-8" standalone="no"?>
<svg
   xmlns:dc="http://purl.org/dc/elements/1.1/"
   xmlns:cc="http://creativecommons.org/ns#"
   xmlns:rdf="http://www.w3.org/1999/02/22-rdf-syntax-ns#"
   xmlns:svg="http://www.w3.org/2000/svg"
   xmlns="http://www.w3.org/2000/svg"
   xmlns:sodipodi="http://sodipodi.sourceforge.net/DTD/sodipodi-0.dtd"
   xmlns:inkscape="http://www.inkscape.org/namespaces/inkscape"
   sodipodi:docname="Frame Rev3.svg"
   inkscape:version="1.0 (4035a4fb49, 2020-05-01)"
   id="svg8"
   version="1.1"
   viewBox="0 0 210 297"
   height="297mm"
   width="210mm">
  <defs
     id="defs2">
    <marker
       id="DistanceX"
       orient="auto"
       refX="0.0"
       refY="0.0"
       style="overflow:visible">
      <path
         d="M 3,-3 L -3,3 M 0,-5 L  0,5"
         style="stroke:#000000; stroke-width:0.5"
         id="path10" />
    </marker>
    <pattern
       id="Hatch"
       patternUnits="userSpaceOnUse"
       width="8"
       height="8"
       x="0"
       y="0">
      <path
         d="M8 4 l-4,4"
         stroke="#000000"
         stroke-width="0.25"
         linecap="square"
         id="path13" />
      <path
         d="M6 2 l-4,4"
         stroke="#000000"
         stroke-width="0.25"
         linecap="square"
         id="path15" />
      <path
         d="M4 0 l-4,4"
         stroke="#000000"
         stroke-width="0.25"
         linecap="square"
         id="path17" />
    </pattern>
    <symbol
       id="*MODEL_SPACE" />
    <symbol
       id="*PAPER_SPACE" />
  </defs>
  <sodipodi:namedview
     inkscape:window-maximized="0"
     inkscape:window-y="0"
     inkscape:window-x="208"
     inkscape:window-height="1040"
     inkscape:window-width="1274"
     showgrid="false"
     inkscape:document-rotation="0"
     inkscape:current-layer="layer1"
     inkscape:document-units="mm"
     inkscape:cy="560"
     inkscape:cx="400"
     inkscape:zoom="0.35"
     inkscape:pageshadow="2"
     inkscape:pageopacity="0.0"
     borderopacity="1.0"
     bordercolor="#666666"
     pagecolor="#ffffff"
     id="base" />
  <metadata
     id="metadata5">
    <rdf:RDF>
      <cc:Work
         rdf:about="">
        <dc:format>image/svg+xml</dc:format>
        <dc:type
           rdf:resource="http://purl.org/dc/dcmitype/StillImage" />
        <dc:title></dc:title>
      </cc:Work>
    </rdf:RDF>
  </metadata>
  <g
     id="layer1"
     inkscape:groupmode="layer"
     inkscape:label="Layer 1">
    <g
       transform="matrix(0.26458333,0,0,0.26458333,106.58929,-128.27136)"
       id="g439">
      <g
         inkscape:label="0"
         id="g24" />
      <g
         inkscape:label="SECTION_CUTTING_LINE"
         id="g26" />
      <g
         inkscape:label="DETAIL_VIEW_BORDER"
         id="g28" />
      <g
         inkscape:label="DETAIL_VIEW_PARENT_BORDER"
         id="g30" />
      <g
         inkscape:label="TEXT"
         id="g32" />
      <g
         inkscape:label="SKETCHED_GEOMETRY"
         id="g34" />
      <g
         inkscape:label="VIRTUAL_SHARPS"
         id="g36" />
      <g
         inkscape:label="CENTERLINES"
         id="g38" />
      <g
         inkscape:label="CENTERMARKS"
         id="g40" />
      <g
         inkscape:label="TABLES"
         id="g42" />
      <g
         inkscape:label="IMAGES"
         id="g44" />
      <g
         inkscape:label="ANNOTATION_LINES"
         id="g46" />
      <g
         inkscape:label="ANNOTATION_TEXT"
         id="g48" />
      <g
         inkscape:label="SIDE_THREAD_SYMBOLS"
         id="g50" />
      <g
         inkscape:label="SIDE_THREAD_SYMBOLS_HIDDEN"
         id="g52" />
      <g
         inkscape:label="SURFACE_THREAD_SYMBOLS"
         id="g54" />
      <g
         inkscape:label="SURFACE_THREAD_SYMBOLS_ON_"
         id="g56" />
      <g
         inkscape:label="SURFACE_THREAD_SYMBOLS_HID"
         id="g58" />
      <g
         inkscape:label="BLIND_THREAD_SYMBOLS"
         id="g60" />
      <g
         inkscape:label="BLIND_THREAD_SYMBOLS_HIDDE"
         id="g62" />
      <g
         inkscape:label="EXPLODE_LINES"
         id="g64" />
      <g
         inkscape:label="BREAK_LINES"
         id="g66" />
      <g
         inkscape:label="SHEETMETAL_BEND_LINES_UP"
         id="g68" />
      <g
         inkscape:label="SHEETMETAL_BEND_LINES_DOWN"
         id="g70" />
      <g
         inkscape:label="SHEETMETAL_BEND_TANGENT_LI"
         id="g72" />
      <g
         inkscape:label="SHEETMETAL_CUT_LINES"
         id="g74" />
      <g
         inkscape:label="HIDDEN"
         id="g76" />
      <g
         inkscape:label="VISIBLE"
         id="g272">
        <path
           d="m -151.54454,1162.3667 a 6.047245,6.047245 0 1 0 -12.09449,0 6.047245,6.047245 0 1 0 12.09449,0 z"
           style="fill:none;stroke:#000000"
           id="path78" />
        <path
           d="m -62.725643,1162.3668 a 6.0472445,6.0472445 0 1 0 -12.094489,0 6.0472445,6.0472445 0 1 0 12.094489,0 z"
           style="fill:none;stroke:#000000"
           id="path80" />
        <path
           d="m 99.04252,1115.1043 a 3.779528,3.779528 0 0 0 3.77953,3.7795"
           style="fill:none;stroke:#000000"
           id="path82" />
        <path
           d="m 99.04252,1115.1043 v -22.6771"
           style="fill:none;stroke:#000000"
           id="path84" />
        <path
           d="m 102.82205,1088.6476 a 3.779528,3.779528 0 0 0 -3.77953,3.7796"
           style="fill:none;stroke:#000000"
           id="path86" />
        <path
           d="m 102.82205,1088.6476 h 15.11811"
           style="fill:none;stroke:#000000"
           id="path88" />
        <path
           d="m 121.71968,1092.4272 a 3.779528,3.779528 0 0 0 -3.77952,-3.7796"
           style="fill:none;stroke:#000000"
           id="path90" />
        <path
           d="m 121.71968,1115.1043 v -22.6771"
           style="fill:none;stroke:#000000"
           id="path92" />
        <path
           d="m 117.94016,1118.8838 a 3.779528,3.779528 0 0 0 3.77952,-3.7795"
           style="fill:none;stroke:#000000"
           id="path94" />
        <path
           d="m 102.82205,1118.8838 h 15.11811"
           style="fill:none;stroke:#000000"
           id="path96" />
        <path
           d="m 99.04252,1039.5138 a 3.779528,3.779528 0 0 0 3.77953,3.7795"
           style="fill:none;stroke:#000000"
           id="path98" />
        <path
           d="m 99.04252,1039.5138 v -22.6772"
           style="fill:none;stroke:#000000"
           id="path100" />
        <path
           d="m 102.82205,1013.0571 a 3.779528,3.779528 0 0 0 -3.77953,3.7795"
           style="fill:none;stroke:#000000"
           id="path102" />
        <path
           d="m 102.82205,1013.0571 h 15.11811"
           style="fill:none;stroke:#000000"
           id="path104" />
        <path
           d="m 121.71968,1016.8366 a 3.779528,3.779528 0 0 0 -3.77952,-3.7795"
           style="fill:none;stroke:#000000"
           id="path106" />
        <path
           d="m 121.71968,1039.5138 v -22.6772"
           style="fill:none;stroke:#000000"
           id="path108" />
        <path
           d="m 117.94016,1043.2933 a 3.779528,3.779528 0 0 0 3.77952,-3.7795"
           style="fill:none;stroke:#000000"
           id="path110" />
        <path
           d="m 102.82205,1043.2933 h 15.11811"
           style="fill:none;stroke:#000000"
           id="path112" />
        <path
           d="m -121.71968,1115.1043 v -22.6771"
           style="fill:none;stroke:#000000"
           id="path114" />
        <path
           d="m -117.94016,1088.6476 a 3.779528,3.779528 0 0 0 -3.77952,3.7796"
           style="fill:none;stroke:#000000"
           id="path116" />
        <path
           d="m -102.82205,1088.6476 h -15.11811"
           style="fill:none;stroke:#000000"
           id="path118" />
        <path
           d="m -99.04252,1092.4272 a 3.779528,3.779528 0 0 0 -3.77953,-3.7796"
           style="fill:none;stroke:#000000"
           id="path120" />
        <path
           d="m -99.04252,1115.1043 v -22.6771"
           style="fill:none;stroke:#000000"
           id="path122" />
        <path
           d="m -102.82205,1118.8838 a 3.779528,3.779528 0 0 0 3.77953,-3.7795"
           style="fill:none;stroke:#000000"
           id="path124" />
        <path
           d="m -102.82205,1118.8838 h -15.11811"
           style="fill:none;stroke:#000000"
           id="path126" />
        <path
           d="m -121.71968,1115.1043 a 3.779528,3.779528 0 0 0 3.77952,3.7795"
           style="fill:none;stroke:#000000"
           id="path128" />
        <path
           d="m 119.81102,773.06619 v 7.55905"
           style="fill:none;stroke:#000000"
           id="path130" />
        <path
           d="m 123.59055,769.28666 a 3.779528,3.779528 0 0 0 -3.77953,3.77953"
           style="fill:none;stroke:#000000"
           id="path132" />
        <path
           d="m 123.59055,769.28666 h 41.5748"
           style="fill:none;stroke:#000000"
           id="path134" />
        <path
           d="m 168.94488,773.06619 a 3.779528,3.779528 0 0 0 -3.77953,-3.77953"
           style="fill:none;stroke:#000000"
           id="path136" />
        <path
           d="m 168.94488,773.06619 v 7.55905"
           style="fill:none;stroke:#000000"
           id="path138" />
        <path
           d="m 165.16535,784.40477 a 3.779528,3.779528 0 0 0 3.77953,-3.77953"
           style="fill:none;stroke:#000000"
           id="path140" />
        <path
           d="m 123.59055,784.40477 h 41.5748"
           style="fill:none;stroke:#000000"
           id="path142" />
        <path
           d="m 119.81102,780.62524 a 3.779528,3.779528 0 0 0 3.77953,3.77953"
           style="fill:none;stroke:#000000"
           id="path144" />
        <path
           d="m 119.81102,734.66619 v 7.55905"
           style="fill:none;stroke:#000000"
           id="path146" />
        <path
           d="m 123.59055,730.88666 a 3.779528,3.779528 0 0 0 -3.77953,3.77953"
           style="fill:none;stroke:#000000"
           id="path148" />
        <path
           d="m 123.59055,730.88666 h 41.5748"
           style="fill:none;stroke:#000000"
           id="path150" />
        <path
           d="m 168.94488,734.66619 a 3.779528,3.779528 0 0 0 -3.77953,-3.77953"
           style="fill:none;stroke:#000000"
           id="path152" />
        <path
           d="m 168.94488,734.66619 v 7.55905"
           style="fill:none;stroke:#000000"
           id="path154" />
        <path
           d="m 165.16535,746.00477 a 3.779528,3.779528 0 0 0 3.77953,-3.77953"
           style="fill:none;stroke:#000000"
           id="path156" />
        <path
           d="m 123.59055,746.00477 h 41.5748"
           style="fill:none;stroke:#000000"
           id="path158" />
        <path
           d="m 119.81102,742.22524 a 3.779528,3.779528 0 0 0 3.77953,3.77953"
           style="fill:none;stroke:#000000"
           id="path160" />
        <path
           d="m 119.81102,696.26618 v 7.55906"
           style="fill:none;stroke:#000000"
           id="path162" />
        <path
           d="m 123.59055,692.48666 a 3.779528,3.779528 0 0 0 -3.77953,3.77952"
           style="fill:none;stroke:#000000"
           id="path164" />
        <path
           d="m 123.59055,692.48666 h 41.5748"
           style="fill:none;stroke:#000000"
           id="path166" />
        <path
           d="m 168.94488,696.26618 a 3.779528,3.779528 0 0 0 -3.77953,-3.77952"
           style="fill:none;stroke:#000000"
           id="path168" />
        <path
           d="m 168.94488,696.26618 v 7.55906"
           style="fill:none;stroke:#000000"
           id="path170" />
        <path
           d="m 165.16535,707.60477 a 3.779528,3.779528 0 0 0 3.77953,-3.77953"
           style="fill:none;stroke:#000000"
           id="path172" />
        <path
           d="m 123.59055,707.60477 h 41.5748"
           style="fill:none;stroke:#000000"
           id="path174" />
        <path
           d="m 119.81102,703.82524 a 3.779528,3.779528 0 0 0 3.77953,3.77953"
           style="fill:none;stroke:#000000"
           id="path176" />
        <path
           d="M -42.897545,912.98898 H 38.362298"
           style="fill:none;stroke:#000000"
           id="path178" />
        <path
           d="M -42.897545,912.98898 V 897.87087"
           style="fill:none;stroke:#000000"
           id="path180" />
        <path
           d="M -42.897545,897.87087 H 38.362298"
           style="fill:none;stroke:#000000"
           id="path182" />
        <path
           d="M 38.362298,912.98898 V 897.87087"
           style="fill:none;stroke:#000000"
           id="path184" />
        <path
           d="m 4.818898,783.45989 a 4.818898,4.818898 0 1 0 -9.637796,0 4.818898,4.818898 0 1 0 9.637796,0 z"
           style="fill:none;stroke:#000000"
           id="path186" />
        <path
           d="m 4.818898,678.38902 a 4.818898,4.818898 0 1 0 -9.637796,0 4.818898,4.818898 0 1 0 9.637796,0 z"
           style="fill:none;stroke:#000000"
           id="path188" />
        <path
           d="m 74.43251,1101.5859 a 6.047244,6.047244 0 1 0 -12.094488,0 6.047244,6.047244 0 1 0 12.094488,0 z"
           style="fill:none;stroke:#000000"
           id="path190" />
        <path
           d="m 34.015841,859.13071 a 6.047244,6.047244 0 1 0 -12.094488,0 6.047244,6.047244 0 1 0 12.094488,0 z"
           style="fill:none;stroke:#000000"
           id="path192" />
        <path
           d="m -26.4566,859.13071 a 6.047244,6.047244 0 1 0 -12.094488,0 6.047244,6.047244 0 1 0 12.094488,0 z"
           style="fill:none;stroke:#000000"
           id="path194" />
        <path
           d="m -50.286617,941.14647 a 6.047244,6.047244 0 1 0 -12.094488,0 6.047244,6.047244 0 1 0 12.094488,0 z"
           style="fill:none;stroke:#000000"
           id="path196" />
        <path
           d="m -76.74331,971.38269 a 6.047244,6.047244 0 1 0 -12.094488,0 6.047244,6.047244 0 1 0 12.094488,0 z"
           style="fill:none;stroke:#000000"
           id="path198" />
        <path
           d="m -76.74331,910.91025 a 6.047244,6.047244 0 1 0 -12.094488,0 6.047244,6.047244 0 1 0 12.094488,0 z"
           style="fill:none;stroke:#000000"
           id="path200" />
        <path
           d="m 88.837798,910.91025 a 6.047244,6.047244 0 1 0 -12.094488,0 6.047244,6.047244 0 1 0 12.094488,0 z"
           style="fill:none;stroke:#000000"
           id="path202" />
        <path
           d="m 88.837798,971.38269 a 6.047244,6.047244 0 1 0 -12.094488,0 6.047244,6.047244 0 1 0 12.094488,0 z"
           style="fill:none;stroke:#000000"
           id="path204" />
        <path
           d="m -66.543868,1101.5859 a 6.047244,6.047244 0 1 0 -12.094488,0 6.047244,6.047244 0 1 0 12.094488,0 z"
           style="fill:none;stroke:#000000"
           id="path206" />
        <path
           d="m 60.109006,1147.2487 a 6.0472445,6.0472445 0 1 0 -12.094489,0 6.0472445,6.0472445 0 1 0 12.094489,0 z"
           style="fill:none;stroke:#000000"
           id="path208" />
        <path
           d="m 169.7153,1147.2487 a 6.047244,6.047244 0 1 0 -12.09448,0 6.047244,6.047244 0 1 0 12.09448,0 z"
           style="fill:none;stroke:#000000"
           id="path210" />
        <path
           d="m 190.50266,1345.6739 a 6.047245,6.047245 0 1 0 -12.09449,0 6.047245,6.047245 0 1 0 12.09449,0 z"
           style="fill:none;stroke:#000000"
           id="path212" />
        <path
           d="m 62.381105,941.14647 a 6.047244,6.047244 0 1 0 -12.094488,0 6.047244,6.047244 0 1 0 12.094488,0 z"
           style="fill:none;stroke:#000000"
           id="path214" />
        <path
           d="m -16.864924,1394.4567 a 6.047244,6.047244 0 1 0 -12.094488,0 6.047244,6.047244 0 1 0 12.094488,0 z"
           style="fill:none;stroke:#000000"
           id="path216" />
        <path
           d="m 28.959412,1394.4567 a 6.047244,6.047244 0 1 0 -12.094488,0 6.047244,6.047244 0 1 0 12.094488,0 z"
           style="fill:none;stroke:#000000"
           id="path218" />
        <path
           d="m 6.047244,1354.7717 a 6.047244,6.047244 0 1 0 -12.094488,0 6.047244,6.047244 0 1 0 12.094488,0 z"
           style="fill:none;stroke:#000000"
           id="path220" />
        <path
           d="M 25.322835,774.95595 V 686.515"
           style="fill:none;stroke:#000000"
           id="path222" />
        <path
           d="M -24.566929,774.95595 H 25.322835"
           style="fill:none;stroke:#000000"
           id="path224" />
        <path
           d="M -24.566929,774.95595 V 686.515"
           style="fill:none;stroke:#000000"
           id="path226" />
        <path
           d="M -24.566929,686.515 H 25.322835"
           style="fill:none;stroke:#000000"
           id="path228" />
        <path
           d="m -102.82205,1013.0571 h -15.11811"
           style="fill:none;stroke:#000000"
           id="path230" />
        <path
           d="m -99.04252,1016.8366 a 3.779528,3.779528 0 0 0 -3.77953,-3.7795"
           style="fill:none;stroke:#000000"
           id="path232" />
        <path
           d="m -99.04252,1039.5138 v -22.6772"
           style="fill:none;stroke:#000000"
           id="path234" />
        <path
           d="m -102.82205,1043.2933 a 3.779528,3.779528 0 0 0 3.77953,-3.7795"
           style="fill:none;stroke:#000000"
           id="path236" />
        <path
           d="m -102.82205,1043.2933 h -15.11811"
           style="fill:none;stroke:#000000"
           id="path238" />
        <path
           d="m -121.71968,1039.5138 a 3.779528,3.779528 0 0 0 3.77952,3.7795"
           style="fill:none;stroke:#000000"
           id="path240" />
        <path
           d="m -121.71968,1039.5138 v -22.6772"
           style="fill:none;stroke:#000000"
           id="path242" />
        <path
           d="m -117.94016,1013.0571 a 3.779528,3.779528 0 0 0 -3.77952,3.7795"
           style="fill:none;stroke:#000000"
           id="path244" />
        <path
           d="M 245.10236,700.91339 A 18.897638,18.897638 0 0 0 264,682.01575"
           style="fill:none;stroke:#000000"
           id="path246" />
        <path
           d="m 264,682.01575 c 0,-7.16644 -0.3328,-11.28963 -7.61154,-15.00353 C 227.91781,652.48536 93.176499,644.22047 0,644.22047"
           style="fill:none;stroke:#000000"
           id="path248" />
        <path
           d="m -264,682.01575 c 0,-7.16644 0.3328,-11.28963 7.61154,-15.00353 C -227.91781,652.48536 -93.176499,644.22047 0,644.22047"
           style="fill:none;stroke:#000000"
           id="path250" />
        <path
           d="m -264,682.01575 a 18.897638,18.897638 0 0 0 18.89764,18.89764"
           style="fill:none;stroke:#000000"
           id="path252" />
        <path
           d="m -218.09764,700.91339 h -27.00472"
           style="fill:none;stroke:#000000"
           id="path254" />
        <path
           d="m -199.2,719.81102 a 18.897638,18.897638 0 0 0 -18.89764,-18.89763"
           style="fill:none;stroke:#000000"
           id="path256" />
        <path
           d="M -199.2,1022.1221 V 719.81102"
           style="fill:none;stroke:#000000"
           id="path258" />
        <path
           d="m -199.2,1400.0748 c -41.75839,-25.8915 -68.20604,-82.5526 -64.8,-124.739 4.64451,-57.5259 64.8,-88.1374 64.8,-253.2137"
           style="fill:none;stroke:#000000"
           id="path260" />
        <path
           d="m -199.2,1400.0748 a 378.01766,378.01766 0 0 0 398.4,0"
           style="fill:none;stroke:#000000"
           id="path262" />
        <path
           d="m 199.2,1400.0748 c 41.75839,-25.8915 68.20604,-82.5526 64.8,-124.739 -4.64451,-57.5259 -64.8,-88.1374 -64.8,-253.2137"
           style="fill:none;stroke:#000000"
           id="path264" />
        <path
           d="M 199.2,1022.1221 V 719.81102"
           style="fill:none;stroke:#000000"
           id="path266" />
        <path
           d="M 218.09764,700.91339 A 18.897638,18.897638 0 0 0 199.2,719.81102"
           style="fill:none;stroke:#000000"
           id="path268" />
        <path
           d="m 218.09764,700.91339 h 27.00472"
           style="fill:none;stroke:#000000"
           id="path270" />
      </g>
      <g
         inkscape:label="MODELSKETCH_VISIBLE"
         id="g274" />
      <g
         inkscape:label="MODELSKETCH_CONSTRUCTION"
         id="g276" />
      <g
         inkscape:label="HIDDEN_BASE_VIEW"
         id="g278" />
      <g
         inkscape:label="TANGENT_LINES"
         id="g280" />
      <g
         inkscape:label="TANGENT_HIDDEN"
         id="g282" />
      <g
         inkscape:label="INVISIBLE_LINES"
         id="g284" />
      <g
         inkscape:label="VIEW_HATCHES"
         id="g286" />
      <g
         inkscape:label="SECTION_JOG_LINES"
         id="g288" />
    </g>
  </g>
</svg>
