<?xml version="1.0" encoding="UTF-8" standalone="no"?>
<svg
   xmlns:dc="http://purl.org/dc/elements/1.1/"
   xmlns:cc="http://creativecommons.org/ns#"
   xmlns:rdf="http://www.w3.org/1999/02/22-rdf-syntax-ns#"
   xmlns:svg="http://www.w3.org/2000/svg"
   xmlns="http://www.w3.org/2000/svg"
   xmlns:sodipodi="http://sodipodi.sourceforge.net/DTD/sodipodi-0.dtd"
   xmlns:inkscape="http://www.inkscape.org/namespaces/inkscape"
   sodipodi:docname="Frame Rev1.svg"
   inkscape:version="1.0 (4035a4fb49, 2020-05-01)"
   id="svg8"
   version="1.1"
   viewBox="0 0 210 297"
   height="297mm"
   width="210mm">
  <defs
     id="defs2">
    <marker
       id="DistanceX"
       orient="auto"
       refX="0.0"
       refY="0.0"
       style="overflow:visible">
      <path
         d="M 3,-3 L -3,3 M 0,-5 L  0,5"
         style="stroke:#000000; stroke-width:0.5"
         id="path331" />
    </marker>
    <pattern
       id="Hatch"
       patternUnits="userSpaceOnUse"
       width="8"
       height="8"
       x="0"
       y="0">
      <path
         d="M8 4 l-4,4"
         stroke="#000000"
         stroke-width="0.25"
         linecap="square"
         id="path334" />
      <path
         d="M6 2 l-4,4"
         stroke="#000000"
         stroke-width="0.25"
         linecap="square"
         id="path336" />
      <path
         d="M4 0 l-4,4"
         stroke="#000000"
         stroke-width="0.25"
         linecap="square"
         id="path338" />
    </pattern>
    <symbol
       id="*MODEL_SPACE" />
    <symbol
       id="*PAPER_SPACE" />
  </defs>
  <sodipodi:namedview
     inkscape:window-maximized="0"
     inkscape:window-y="0"
     inkscape:window-x="130"
     inkscape:window-height="1040"
     inkscape:window-width="1274"
     showgrid="false"
     inkscape:document-rotation="0"
     inkscape:current-layer="layer1"
     inkscape:document-units="mm"
     inkscape:cy="874.41828"
     inkscape:cx="613.13328"
     inkscape:zoom="0.49497475"
     inkscape:pageshadow="2"
     inkscape:pageopacity="0.0"
     borderopacity="1.0"
     bordercolor="#666666"
     pagecolor="#ffffff"
     id="base" />
  <metadata
     id="metadata5">
    <rdf:RDF>
      <cc:Work
         rdf:about="">
        <dc:format>image/svg+xml</dc:format>
        <dc:type
           rdf:resource="http://purl.org/dc/dcmitype/StillImage" />
        <dc:title></dc:title>
      </cc:Work>
    </rdf:RDF>
  </metadata>
  <g
     id="layer1"
     inkscape:groupmode="layer"
     inkscape:label="Layer 1">
    <g
       transform="matrix(0.26458333,0,0,0.26458333,120.95234,-96.521327)"
       id="g583">
      <g
         inkscape:label="0"
         id="g345" />
      <g
         inkscape:label="SECTION_CUTTING_LINE"
         id="g347" />
      <g
         inkscape:label="DETAIL_VIEW_BORDER"
         id="g349" />
      <g
         inkscape:label="DETAIL_VIEW_PARENT_BORDER"
         id="g351" />
      <g
         inkscape:label="TEXT"
         id="g353" />
      <g
         inkscape:label="SKETCHED_GEOMETRY"
         id="g355" />
      <g
         inkscape:label="VIRTUAL_SHARPS"
         id="g357" />
      <g
         inkscape:label="CENTERLINES"
         id="g359" />
      <g
         inkscape:label="CENTERMARKS"
         id="g361" />
      <g
         inkscape:label="TABLES"
         id="g363" />
      <g
         inkscape:label="IMAGES"
         id="g365" />
      <g
         inkscape:label="ANNOTATION_LINES"
         id="g367" />
      <g
         inkscape:label="ANNOTATION_TEXT"
         id="g369" />
      <g
         inkscape:label="SIDE_THREAD_SYMBOLS"
         id="g371" />
      <g
         inkscape:label="SIDE_THREAD_SYMBOLS_HIDDEN"
         id="g373" />
      <g
         inkscape:label="SURFACE_THREAD_SYMBOLS"
         id="g375" />
      <g
         inkscape:label="SURFACE_THREAD_SYMBOLS_ON_"
         id="g377" />
      <g
         inkscape:label="SURFACE_THREAD_SYMBOLS_HID"
         id="g379" />
      <g
         inkscape:label="BLIND_THREAD_SYMBOLS"
         id="g381" />
      <g
         inkscape:label="BLIND_THREAD_SYMBOLS_HIDDE"
         id="g383" />
      <g
         inkscape:label="EXPLODE_LINES"
         id="g385" />
      <g
         inkscape:label="BREAK_LINES"
         id="g387" />
      <g
         inkscape:label="SHEETMETAL_BEND_LINES_UP"
         id="g389" />
      <g
         inkscape:label="SHEETMETAL_BEND_LINES_DOWN"
         id="g391" />
      <g
         inkscape:label="SHEETMETAL_BEND_TANGENT_LI"
         id="g393" />
      <g
         inkscape:label="SHEETMETAL_CUT_LINES"
         id="g395" />
      <g
         inkscape:label="HIDDEN"
         id="g397" />
      <g
         inkscape:label="VISIBLE"
         id="g475">
        <path
           d="m 4.818898,783.45989 a 4.818898,4.818898 0 1 0 -9.637796,0 4.818898,4.818898 0 1 0 9.637796,0 z"
           style="fill:none;stroke:#000000"
           id="path399" />
        <path
           d="m 4.818898,678.38902 a 4.818898,4.818898 0 1 0 -9.637796,0 4.818898,4.818898 0 1 0 9.637796,0 z"
           style="fill:none;stroke:#000000"
           id="path401" />
        <path
           d="m 34.015841,859.13071 a 6.047244,6.047244 0 1 0 -12.094488,0 6.047244,6.047244 0 1 0 12.094488,0 z"
           style="fill:none;stroke:#000000"
           id="path403" />
        <path
           d="m -26.4566,859.13071 a 6.047244,6.047244 0 1 0 -12.094488,0 6.047244,6.047244 0 1 0 12.094488,0 z"
           style="fill:none;stroke:#000000"
           id="path405" />
        <path
           d="m -66.543868,960.60951 a 6.047244,6.047244 0 1 0 -12.094488,0 6.047244,6.047244 0 1 0 12.094488,0 z"
           style="fill:none;stroke:#000000"
           id="path407" />
        <path
           d="m -50.286617,941.14647 a 6.047244,6.047244 0 1 0 -12.094488,0 6.047244,6.047244 0 1 0 12.094488,0 z"
           style="fill:none;stroke:#000000"
           id="path409" />
        <path
           d="m -76.74331,971.38269 a 6.047244,6.047244 0 1 0 -12.094488,0 6.047244,6.047244 0 1 0 12.094488,0 z"
           style="fill:none;stroke:#000000"
           id="path411" />
        <path
           d="m -76.74331,910.91025 a 6.047244,6.047244 0 1 0 -12.094488,0 6.047244,6.047244 0 1 0 12.094488,0 z"
           style="fill:none;stroke:#000000"
           id="path413" />
        <path
           d="m 88.837798,910.91025 a 6.047244,6.047244 0 1 0 -12.094488,0 6.047244,6.047244 0 1 0 12.094488,0 z"
           style="fill:none;stroke:#000000"
           id="path415" />
        <path
           d="m 88.837798,971.38269 a 6.047244,6.047244 0 1 0 -12.094488,0 6.047244,6.047244 0 1 0 12.094488,0 z"
           style="fill:none;stroke:#000000"
           id="path417" />
        <path
           d="m 74.43251,960.60951 a 6.047244,6.047244 0 1 0 -12.094488,0 6.047244,6.047244 0 1 0 12.094488,0 z"
           style="fill:none;stroke:#000000"
           id="path419" />
        <path
           d="m 74.43251,1101.5859 a 6.047244,6.047244 0 1 0 -12.094488,0 6.047244,6.047244 0 1 0 12.094488,0 z"
           style="fill:none;stroke:#000000"
           id="path421" />
        <path
           d="m -66.543868,1101.5859 a 6.047244,6.047244 0 1 0 -12.094488,0 6.047244,6.047244 0 1 0 12.094488,0 z"
           style="fill:none;stroke:#000000"
           id="path423" />
        <path
           d="m 60.109006,1147.2487 a 6.0472445,6.0472445 0 1 0 -12.094489,0 6.0472445,6.0472445 0 1 0 12.094489,0 z"
           style="fill:none;stroke:#000000"
           id="path425" />
        <path
           d="m 169.7153,1147.2487 a 6.047244,6.047244 0 1 0 -12.09448,0 6.047244,6.047244 0 1 0 12.09448,0 z"
           style="fill:none;stroke:#000000"
           id="path427" />
        <path
           d="m 190.50266,1345.6739 a 6.047245,6.047245 0 1 0 -12.09449,0 6.047245,6.047245 0 1 0 12.09449,0 z"
           style="fill:none;stroke:#000000"
           id="path429" />
        <path
           d="m 62.381105,941.14647 a 6.047244,6.047244 0 1 0 -12.094488,0 6.047244,6.047244 0 1 0 12.094488,0 z"
           style="fill:none;stroke:#000000"
           id="path431" />
        <path
           d="m -16.864924,1394.4567 a 6.047244,6.047244 0 1 0 -12.094488,0 6.047244,6.047244 0 1 0 12.094488,0 z"
           style="fill:none;stroke:#000000"
           id="path433" />
        <path
           d="m 28.959412,1394.4567 a 6.047244,6.047244 0 1 0 -12.094488,0 6.047244,6.047244 0 1 0 12.094488,0 z"
           style="fill:none;stroke:#000000"
           id="path435" />
        <path
           d="m 6.047244,1354.7717 a 6.047244,6.047244 0 1 0 -12.094488,0 6.047244,6.047244 0 1 0 12.094488,0 z"
           style="fill:none;stroke:#000000"
           id="path437" />
        <path
           d="m 218.09764,700.91339 h 27.00472"
           style="fill:none;stroke:#000000"
           id="path439" />
        <path
           d="M 245.10236,700.91339 A 18.897638,18.897638 0 0 0 264,682.01575"
           style="fill:none;stroke:#000000"
           id="path441" />
        <path
           d="M 264,682.01575 V 663.11811"
           style="fill:none;stroke:#000000"
           id="path443" />
        <path
           d="M 264,663.11811 A 18.897638,18.897638 0 0 0 245.10236,644.22047"
           style="fill:none;stroke:#000000"
           id="path445" />
        <path
           d="M -245.10236,644.22047 H 245.10236"
           style="fill:none;stroke:#000000"
           id="path447" />
        <path
           d="M -245.10236,644.22047 A 18.897638,18.897638 0 0 0 -264,663.11811"
           style="fill:none;stroke:#000000"
           id="path449" />
        <path
           d="M -264,682.01575 V 663.11811"
           style="fill:none;stroke:#000000"
           id="path451" />
        <path
           d="m -264,682.01575 a 18.897638,18.897638 0 0 0 18.89764,18.89764"
           style="fill:none;stroke:#000000"
           id="path453" />
        <path
           d="m -218.09764,700.91339 h -27.00472"
           style="fill:none;stroke:#000000"
           id="path455" />
        <path
           d="m -199.2,719.81102 a 18.897638,18.897638 0 0 0 -18.89764,-18.89763"
           style="fill:none;stroke:#000000"
           id="path457" />
        <path
           d="M -199.2,1400.0748 V 719.81102"
           style="fill:none;stroke:#000000"
           id="path459" />
        <path
           d="m -199.2,1400.0748 a 378.01766,378.01766 0 0 0 398.4,0"
           style="fill:none;stroke:#000000"
           id="path461" />
        <path
           d="M 199.2,1400.0748 V 719.81102"
           style="fill:none;stroke:#000000"
           id="path463" />
        <path
           d="M 218.09764,700.91339 A 18.897638,18.897638 0 0 0 199.2,719.81102"
           style="fill:none;stroke:#000000"
           id="path465" />
        <path
           d="M 25.322835,774.95595 V 686.515"
           style="fill:none;stroke:#000000"
           id="path467" />
        <path
           d="M -24.566929,774.95595 H 25.322835"
           style="fill:none;stroke:#000000"
           id="path469" />
        <path
           d="M -24.566929,774.95595 V 686.515"
           style="fill:none;stroke:#000000"
           id="path471" />
        <path
           d="M -24.566929,686.515 H 25.322835"
           style="fill:none;stroke:#000000"
           id="path473" />
      </g>
      <g
         inkscape:label="MODELSKETCH_VISIBLE"
         id="g477" />
      <g
         inkscape:label="MODELSKETCH_CONSTRUCTION"
         id="g479" />
      <g
         inkscape:label="HIDDEN_BASE_VIEW"
         id="g481" />
      <g
         inkscape:label="TANGENT_LINES"
         id="g483" />
      <g
         inkscape:label="TANGENT_HIDDEN"
         id="g485" />
      <g
         inkscape:label="INVISIBLE_LINES"
         id="g487" />
      <g
         inkscape:label="VIEW_HATCHES"
         id="g489" />
      <g
         inkscape:label="SECTION_JOG_LINES"
         id="g491" />
    </g>
  </g>
</svg>
